<?xml version="1.0" encoding="UTF-8"?>
<svg width="700pt" height="700pt" version="1.1" viewBox="0 0 700 700" xmlns="http://www.w3.org/2000/svg" xmlns:xlink="http://www.w3.org/1999/xlink">
 <defs>
  <symbol id="w" overflow="visible">
   <path d="m25.359-1.5156c-1.3125 0.67969-2.6797 1.1875-4.0938 1.5312-1.418 0.34375-2.8984 0.51562-4.4375 0.51562-4.5938 0-8.2344-1.2812-10.922-3.8438-2.6797-2.5703-4.0156-6.0547-4.0156-10.453 0-4.4062 1.3359-7.8945 4.0156-10.469 2.6875-2.5703 6.3281-3.8594 10.922-3.8594 1.5391 0 3.0195 0.17969 4.4375 0.53125 1.4141 0.34375 2.7812 0.85547 4.0938 1.5312v5.7031c-1.3242-0.89453-2.625-1.5508-3.9062-1.9688-1.2812-0.42578-2.6328-0.64062-4.0469-0.64062-2.543 0-4.543 0.82031-6 2.4531-1.4492 1.625-2.1719 3.8672-2.1719 6.7188 0 2.8438 0.72266 5.0781 2.1719 6.7031 1.457 1.625 3.457 2.4375 6 2.4375 1.4141 0 2.7656-0.20703 4.0469-0.625 1.2812-0.41406 2.582-1.0703 3.9062-1.9688z"/>
  </symbol>
  <symbol id="d" overflow="visible">
   <path d="m18.547-15.062c-0.57422-0.26953-1.1484-0.46875-1.7188-0.59375-0.57422-0.13281-1.1523-0.20312-1.7344-0.20312-1.6992 0-3.0078 0.54688-3.9219 1.6406-0.91797 1.0938-1.375 2.6562-1.375 4.6875v9.5312h-6.625v-20.703h6.625v3.4062c0.84375-1.3516 1.8164-2.3359 2.9219-2.9531 1.1016-0.625 2.4258-0.9375 3.9688-0.9375 0.21875 0 0.45703 0.011719 0.71875 0.03125 0.25781 0.011719 0.63281 0.046875 1.125 0.10938z"/>
  </symbol>
  <symbol id="a" overflow="visible">
   <path d="m23.844-10.406v1.8906h-15.469c0.15625 1.5547 0.71094 2.7188 1.6719 3.5 0.96875 0.77344 2.3125 1.1562 4.0312 1.1562 1.3945 0 2.8203-0.20312 4.2812-0.60938 1.457-0.41406 2.957-1.0469 4.5-1.8906v5.1094c-1.5625 0.58594-3.1328 1.0273-4.7031 1.3281-1.5625 0.30078-3.125 0.45312-4.6875 0.45312-3.7422 0-6.6523-0.94531-8.7344-2.8438-2.0742-1.9062-3.1094-4.5781-3.1094-8.0156 0-3.375 1.0195-6.0234 3.0625-7.9531 2.0391-1.9375 4.8438-2.9062 8.4062-2.9062 3.2578 0 5.8633 0.98047 7.8125 2.9375 1.957 1.9609 2.9375 4.5742 2.9375 7.8438zm-6.8125-2.2031c0-1.25-0.36719-2.2578-1.0938-3.0312-0.73047-0.76953-1.6875-1.1562-2.875-1.1562-1.2812 0-2.3242 0.35938-3.125 1.0781-0.80469 0.71875-1.3047 1.7578-1.5 3.1094z"/>
  </symbol>
  <symbol id="c" overflow="visible">
   <path d="m12.453-9.3125c-1.375 0-2.4141 0.23438-3.1094 0.70312-0.69922 0.46875-1.0469 1.1562-1.0469 2.0625 0 0.84375 0.28125 1.5078 0.84375 1.9844 0.5625 0.46875 1.3359 0.70312 2.3281 0.70312 1.25 0 2.2969-0.44531 3.1406-1.3438 0.85156-0.89453 1.2812-2.0156 1.2812-3.3594v-0.75zm10.109-2.5v11.812h-6.6719v-3.0625c-0.88672 1.25-1.8867 2.1641-3 2.7344-1.1055 0.57031-2.4531 0.85938-4.0469 0.85938-2.1367 0-3.875-0.625-5.2188-1.875-1.3359-1.25-2-2.8672-2-4.8594 0-2.4258 0.83203-4.207 2.5-5.3438 1.6758-1.1328 4.3008-1.7031 7.875-1.7031h3.8906v-0.51562c0-1.0508-0.41406-1.8164-1.2344-2.2969-0.82422-0.48828-2.1094-0.73438-3.8594-0.73438-1.418 0-2.7422 0.14062-3.9688 0.42188-1.2188 0.28125-2.3516 0.71094-3.3906 1.2812v-5.0469c1.4141-0.34375 2.8359-0.60156 4.2656-0.78125 1.4258-0.17578 2.8594-0.26562 4.2969-0.26562 3.7266 0 6.4219 0.73438 8.0781 2.2031s2.4844 3.8594 2.4844 7.1719z"/>
  </symbol>
  <symbol id="b" overflow="visible">
   <path d="m10.406-26.578v5.875h6.8125v4.7344h-6.8125v8.7812c0 0.96094 0.1875 1.6094 0.5625 1.9531 0.38281 0.33594 1.1445 0.5 2.2812 0.5h3.4062v4.7344h-5.6875c-2.6055 0-4.4531-0.53906-5.5469-1.625-1.0938-1.0938-1.6406-2.9453-1.6406-5.5625v-8.7812h-3.2812v-4.7344h3.2812v-5.875z"/>
  </symbol>
  <symbol id="k" overflow="visible">
   <path d="m17.266-17.672v-11.078h6.6406v28.75h-6.6406v-3c-0.91797 1.2188-1.9219 2.1172-3.0156 2.6875-1.0938 0.5625-2.3672 0.84375-3.8125 0.84375-2.5547 0-4.6484-1.0078-6.2812-3.0312-1.6367-2.0312-2.4531-4.6406-2.4531-7.8281s0.81641-5.7891 2.4531-7.8125c1.6328-2.0312 3.7266-3.0469 6.2812-3.0469 1.4258 0 2.6914 0.28906 3.7969 0.85938 1.1016 0.57422 2.1133 1.4609 3.0312 2.6562zm-4.375 13.406c1.4141 0 2.5-0.51562 3.25-1.5469 0.75-1.0391 1.125-2.5469 1.125-4.5156s-0.375-3.4688-1.125-4.5c-0.75-1.0391-1.8359-1.5625-3.25-1.5625-1.3984 0-2.4688 0.52344-3.2188 1.5625-0.74219 1.0312-1.1094 2.5312-1.1094 4.5s0.36719 3.4766 1.1094 4.5156c0.75 1.0312 1.8203 1.5469 3.2188 1.5469z"/>
  </symbol>
  <symbol id="j" overflow="visible">
   <path d="m14.188-4.2656c1.4141 0 2.4922-0.51562 3.2344-1.5469 0.75-1.0391 1.125-2.5469 1.125-4.5156s-0.375-3.4688-1.125-4.5c-0.74219-1.0391-1.8203-1.5625-3.2344-1.5625-1.418 0-2.5078 0.52344-3.2656 1.5625-0.75 1.043-1.125 2.543-1.125 4.5 0 1.9609 0.375 3.4609 1.125 4.5 0.75781 1.043 1.8477 1.5625 3.2656 1.5625zm-4.3906-13.406c0.90625-1.1953 1.9102-2.082 3.0156-2.6562 1.1133-0.57031 2.3945-0.85938 3.8438-0.85938 2.5391 0 4.6289 1.0156 6.2656 3.0469 1.6445 2.0234 2.4688 4.625 2.4688 7.8125s-0.82422 5.7969-2.4688 7.8281c-1.6367 2.0234-3.7266 3.0312-6.2656 3.0312-1.4492 0-2.7305-0.28906-3.8438-0.85938-1.1055-0.57031-2.1094-1.4609-3.0156-2.6719v3h-6.625v-28.75h6.625z"/>
  </symbol>
  <symbol id="i" overflow="visible">
   <path d="m0.46875-20.703h6.6094l5.5625 14.047 4.7344-14.047h6.6094l-8.7031 22.656c-0.875 2.3125-1.8984 3.9258-3.0625 4.8438-1.1562 0.91406-2.6953 1.375-4.6094 1.375h-3.8281v-4.3438h2.0781c1.125 0 1.9414-0.18359 2.4531-0.54688 0.50781-0.35547 0.90625-0.99219 1.1875-1.9062l0.1875-0.57812z"/>
  </symbol>
  <symbol id="h" overflow="visible">
   <path d="m20.219-5.0312h-11.125l-1.7656 5.0312h-7.1406l10.219-27.594h8.4844l10.219 27.594h-7.1562zm-9.3594-5.1094h7.5625l-3.7656-10.984z"/>
  </symbol>
  <symbol id="v" overflow="visible">
   <path d="m2.1562-20.703h18.062v4.625l-10.906 11.344h10.906v4.7344h-18.516v-4.625l10.906-11.344h-10.453z"/>
  </symbol>
  <symbol id="g" overflow="visible">
   <path d="m22.359-17.266c0.83203-1.2812 1.8281-2.2539 2.9844-2.9219 1.1562-0.66406 2.4219-1 3.7969-1 2.375 0 4.1797 0.73438 5.4219 2.2031 1.25 1.4609 1.875 3.5859 1.875 6.375v12.609h-6.6562v-10.797c0.019531-0.15625 0.03125-0.31641 0.03125-0.48438 0.007812-0.17578 0.015625-0.42578 0.015625-0.75 0-1.4688-0.21875-2.5312-0.65625-3.1875-0.42969-0.65625-1.1211-0.98438-2.0781-0.98438-1.2617 0-2.2344 0.52344-2.9219 1.5625-0.67969 1.0312-1.0312 2.5273-1.0625 4.4844v10.156h-6.6406v-10.797c0-2.2891-0.19922-3.7656-0.59375-4.4219-0.39844-0.65625-1.1016-0.98438-2.1094-0.98438-1.2734 0-2.25 0.52344-2.9375 1.5625-0.6875 1.043-1.0312 2.5273-1.0312 4.4531v10.188h-6.6562v-20.703h6.6562v3.0312c0.8125-1.1641 1.7422-2.0391 2.7969-2.625 1.0508-0.59375 2.2109-0.89062 3.4844-0.89062 1.4258 0 2.6875 0.34375 3.7812 1.0312 1.1016 0.6875 1.9375 1.6523 2.5 2.8906z"/>
  </symbol>
  <symbol id="u" overflow="visible">
   <path d="m3.4688-27.594h7.125v27.594h-7.125z"/>
  </symbol>
  <symbol id="t" overflow="visible">
   <path d="m19.344-20.047v5.0312c-1.418-0.59375-2.7891-1.0352-4.1094-1.3281-1.3125-0.30078-2.5547-0.45312-3.7188-0.45312-1.2617 0-2.1992 0.15625-2.8125 0.46875-0.60547 0.3125-0.90625 0.79688-0.90625 1.4531 0 0.53125 0.22656 0.9375 0.6875 1.2188 0.46875 0.28125 1.2969 0.49219 2.4844 0.625l1.1719 0.17188c3.3828 0.42969 5.6602 1.1367 6.8281 2.125 1.1758 0.99219 1.7656 2.5391 1.7656 4.6406 0 2.1992-0.8125 3.8555-2.4375 4.9688-1.625 1.1055-4.0547 1.6562-7.2812 1.6562-1.3672 0-2.7812-0.10938-4.25-0.32812-1.4609-0.20703-2.9609-0.52344-4.5-0.95312v-5.0312c1.3203 0.63672 2.6758 1.1172 4.0625 1.4375 1.3828 0.32422 2.7891 0.48438 4.2188 0.48438 1.2891 0 2.2656-0.17578 2.9219-0.53125 0.65625-0.36328 0.98438-0.89453 0.98438-1.5938 0-0.59375-0.23047-1.0352-0.6875-1.3281-0.44922-0.28906-1.3398-0.51562-2.6719-0.67188l-1.1719-0.14062c-2.9492-0.375-5.0156-1.0547-6.2031-2.0469-1.1797-1-1.7656-2.5195-1.7656-4.5625 0-2.1875 0.75-3.8047 2.25-4.8594 1.5078-1.0625 3.8164-1.5938 6.9219-1.5938 1.2188 0 2.5 0.09375 3.8438 0.28125 1.3438 0.17969 2.8008 0.46484 4.375 0.85938z"/>
  </symbol>
  <symbol id="f" overflow="visible">
   <path d="m23.984-12.609v12.609h-6.6562v-9.6094c0-1.8125-0.042969-3.0547-0.125-3.7344-0.074219-0.67578-0.21094-1.1758-0.40625-1.5-0.26172-0.42578-0.61719-0.75781-1.0625-1-0.4375-0.23828-0.9375-0.35938-1.5-0.35938-1.3867 0-2.4766 0.53125-3.2656 1.5938-0.78125 1.0625-1.1719 2.5391-1.1719 4.4219v10.188h-6.625v-28.75h6.625v11.078c1-1.1953 2.0547-2.082 3.1719-2.6562 1.125-0.57031 2.3633-0.85938 3.7188-0.85938 2.3828 0 4.1953 0.73438 5.4375 2.2031 1.2383 1.4609 1.8594 3.5859 1.8594 6.375z"/>
  </symbol>
  <symbol id="s" overflow="visible">
   <path d="m12.891-16.391c-1.3984 0-2.4688 0.52344-3.2188 1.5625-0.74219 1.0312-1.1094 2.5312-1.1094 4.5s0.36719 3.4766 1.1094 4.5156c0.75 1.0312 1.8203 1.5469 3.2188 1.5469 1.4141 0 2.5-0.51562 3.25-1.5469 0.75-1.0391 1.125-2.5469 1.125-4.5156s-0.375-3.4688-1.125-4.5c-0.75-1.0391-1.8359-1.5625-3.25-1.5625zm4.375 13.391c-0.91797 1.2188-1.9219 2.1172-3.0156 2.6875-1.0938 0.5625-2.3672 0.84375-3.8125 0.84375-2.5547 0-4.6484-1.0078-6.2812-3.0312-1.6367-2.0312-2.4531-4.6406-2.4531-7.8281s0.81641-5.7852 2.4531-7.7969c1.6328-2.0195 3.7266-3.0312 6.2812-3.0312 1.4453 0 2.7188 0.28906 3.8125 0.85938 1.0938 0.5625 2.0977 1.4531 3.0156 2.6719v-3.0781h6.6406v28.578h-6.6406z"/>
  </symbol>
  <symbol id="r" overflow="visible">
   <path d="m16.797-28.75v4.3438h-3.6562c-0.9375 0-1.5938 0.17188-1.9688 0.51562-0.36719 0.33594-0.54688 0.91797-0.54688 1.75v1.4375h5.6562v4.7344h-5.6562v15.969h-6.6094v-15.969h-3.2969v-4.7344h3.2969v-1.4375c0-2.25 0.625-3.9102 1.875-4.9844 1.2578-1.082 3.207-1.625 5.8438-1.625z"/>
  </symbol>
  <symbol id="e" overflow="visible">
   <path d="m13.031-16.469c-1.4688 0-2.5898 0.53125-3.3594 1.5938-0.77344 1.0547-1.1562 2.5703-1.1562 4.5469 0 1.9805 0.38281 3.5 1.1562 4.5625 0.76953 1.0547 1.8906 1.5781 3.3594 1.5781 1.4375 0 2.5352-0.52344 3.2969-1.5781 0.76953-1.0625 1.1562-2.582 1.1562-4.5625 0-1.9766-0.38672-3.4922-1.1562-4.5469-0.76172-1.0625-1.8594-1.5938-3.2969-1.5938zm0-4.7188c3.5625 0 6.3438 0.96484 8.3438 2.8906 2 1.918 3 4.5742 3 7.9688 0 3.3984-1 6.0586-3 7.9844-2 1.918-4.7812 2.875-8.3438 2.875-3.5742 0-6.3711-0.95703-8.3906-2.875-2.0117-1.9258-3.0156-4.5859-3.0156-7.9844 0-3.3945 1.0039-6.0508 3.0156-7.9688 2.0195-1.9258 4.8164-2.8906 8.3906-2.8906z"/>
  </symbol>
  <symbol id="q" overflow="visible">
   <path d="m3.4688-27.594h7.9531l10.031 18.922v-18.922h6.75v27.594h-7.9531l-10.031-18.922v18.922h-6.75z"/>
  </symbol>
  <symbol id="p" overflow="visible">
   <path d="m2.9531-8.0625v-12.641h6.6562v2.0781c0 1.125-0.007813 2.5391-0.015625 4.2344-0.011719 1.6875-0.015625 2.8125-0.015625 3.375 0 1.668 0.039063 2.8711 0.125 3.6094 0.082031 0.73047 0.22656 1.2578 0.4375 1.5781 0.26953 0.4375 0.625 0.77734 1.0625 1.0156 0.4375 0.23047 0.94141 0.34375 1.5156 0.34375 1.375 0 2.4531-0.53125 3.2344-1.5938 0.78906-1.0625 1.1875-2.5352 1.1875-4.4219v-10.219h6.625v20.703h-6.625v-3c-0.99219 1.2109-2.043 2.1016-3.1562 2.6719-1.1172 0.57031-2.3438 0.85938-3.6875 0.85938-2.3984 0-4.2188-0.72656-5.4688-2.1875-1.25-1.4688-1.875-3.6016-1.875-6.4062z"/>
  </symbol>
  <symbol id="o" overflow="visible">
   <path d="m23.984-12.609v12.609h-6.6562v-9.6406c0-1.7891-0.042969-3.0234-0.125-3.7031-0.074219-0.67578-0.21094-1.1758-0.40625-1.5-0.26172-0.42578-0.61719-0.75781-1.0625-1-0.4375-0.23828-0.9375-0.35938-1.5-0.35938-1.3867 0-2.4766 0.53125-3.2656 1.5938-0.78125 1.0625-1.1719 2.5391-1.1719 4.4219v10.188h-6.625v-20.703h6.625v3.0312c1-1.1953 2.0547-2.082 3.1719-2.6562 1.125-0.57031 2.3633-0.85938 3.7188-0.85938 2.3828 0 4.1953 0.73438 5.4375 2.2031 1.2383 1.4609 1.8594 3.5859 1.8594 6.375z"/>
  </symbol>
  <symbol id="n" overflow="visible">
   <path d="m3.4688-27.594h11.812c3.5078 0 6.2031 0.78125 8.0781 2.3438 1.8828 1.5625 2.8281 3.7812 2.8281 6.6562 0 2.8984-0.94531 5.125-2.8281 6.6875-1.875 1.5547-4.5703 2.3281-8.0781 2.3281h-4.6875v9.5781h-7.125zm7.125 5.1562v7.7031h3.9375c1.375 0 2.4375-0.33203 3.1875-1 0.75-0.66406 1.125-1.6172 1.125-2.8594 0-1.2266-0.375-2.1758-1.125-2.8438-0.75-0.66406-1.8125-1-3.1875-1z"/>
  </symbol>
  <symbol id="m" overflow="visible">
   <path d="m3.1719-20.703h6.625v20.328c0 2.7695-0.66797 4.8828-2 6.3438-1.3359 1.4688-3.2617 2.2031-5.7812 2.2031h-3.2656v-4.3438h1.1406c1.2578 0 2.1172-0.28906 2.5781-0.85938 0.46875-0.5625 0.70312-1.6797 0.70312-3.3438zm0-8.0469h6.625v5.3906h-6.625z"/>
  </symbol>
  <symbol id="l" overflow="visible">
   <path d="m19.906-20.047v5.3906c-0.90625-0.61328-1.8125-1.0664-2.7188-1.3594-0.89844-0.30078-1.8359-0.45312-2.8125-0.45312-1.8438 0-3.2812 0.54297-4.3125 1.625-1.0312 1.0742-1.5469 2.5781-1.5469 4.5156s0.51562 3.4492 1.5469 4.5312c1.0312 1.0742 2.4688 1.6094 4.3125 1.6094 1.0312 0 2.0078-0.15625 2.9375-0.46875 0.9375-0.3125 1.8008-0.76953 2.5938-1.375v5.4219c-1.043 0.38672-2.0938 0.67188-3.1562 0.85938s-2.1328 0.28125-3.2031 0.28125c-3.7305 0-6.6523-0.95312-8.7656-2.8594-2.1055-1.9141-3.1562-4.582-3.1562-8 0-3.4141 1.0508-6.0781 3.1562-7.9844 2.1133-1.9141 5.0352-2.875 8.7656-2.875 1.082 0 2.1484 0.09375 3.2031 0.28125 1.0508 0.1875 2.1016 0.47656 3.1562 0.85938z"/>
  </symbol>
 </defs>
 <g>
  <path d="m534.57 243.37h-10.594c-2.1172 0-3.7852 1.6641-3.7852 3.7852 0 2.1172 1.6641 3.7852 3.7852 3.7852h10.594c19.223 0 34.961-15.664 34.961-34.961v-16.043c0-14.227-8.6289-26.488-20.887-31.934v-88.922c7.1875-1.7422 12.637-8.1719 12.637-15.969 0-9.082-7.3398-16.422-16.422-16.422s-16.422 7.3398-16.422 16.422c0 7.793 5.4492 14.227 12.637 15.969l0.003906 86.648c-2.1172-0.37891-4.2383-0.67969-6.5078-0.67969h-10.594c-2.1172 0-3.7852 1.6641-3.7852 3.7852 0 2.1172 1.6641 3.7852 3.7852 3.7852h10.594c15.059 0 27.395 12.258 27.395 27.395v16.043c0 15.055-12.262 27.312-27.395 27.312zm1.4375-180.26c0-4.918 4.0117-8.8555 8.8555-8.8555 4.918 0 8.8555 4.0117 8.8555 8.8555s-4.0117 8.8555-8.8555 8.8555c-4.9219 0-8.8555-3.9375-8.8555-8.8555z"/>
  <path d="m452.69 359.23h-60.539v-31.859h53.805c18.086 0 32.844-13.848 34.582-31.48 17.934-1.4375 32.086-16.348 32.086-34.66l0.003906-85.895c0-18.312-14.152-33.145-32.086-34.66-1.5898-17.859-16.422-31.934-34.66-31.934h-196.38c-18.164 0-32.918 13.926-34.582 31.633-19.145 0.074219-34.734 15.742-34.734 34.887v85.969c0 19.223 15.59 34.812 34.812 34.887 1.8906 17.48 16.574 31.18 34.582 31.18h53.73v31.859h-56c-78.703 0-142.72 64.023-142.72 142.72 0 6.2812 5.0703 11.352 11.352 11.352h468.13c6.2812 0 11.352-5.0703 11.352-11.352-0.003906-78.629-64.027-142.65-142.73-142.65zm-203.19-242.84h196.38c13.848 0 25.125 10.367 27.016 24.066l-250.41-0.003906c1.6641-13.547 13.09-24.062 27.016-24.062zm-26.941 179.88h39.883c2.1172 0 3.7852-1.6641 3.7852-3.7852 0-2.1172-1.6641-3.7852-3.7852-3.7852h-47.297c-15.059 0-27.395-12.258-27.395-27.395l-0.003906-85.965c0-15.059 12.258-27.395 27.395-27.395h262.59c15.059 0 27.395 12.258 27.395 27.395v57.137c-0.53125 8.3984-2.4961 14.074-6.0547 17.559-7.418 7.1875-23.762 6.9609-46.086 5.4492-2.1172-8.8555-11.805-15.59-23.461-15.59-13.168 0-23.914 8.5508-23.914 19.145s10.746 19.145 23.914 19.145c11.504 0 21.039-6.5078 23.383-15.137 7.3398 0.53125 14.227 0.90625 20.207 0.90625 14.152 0 24.52-1.9688 31.254-8.4766 0.30078-0.22656 0.45312-0.53125 0.75781-0.83203v6.7344c0 15.059-12.258 27.395-27.395 27.395l-187.75 0.003906c-2.1172 0-3.7852 1.6641-3.7852 3.7852 0 2.1172 1.6641 3.7852 3.7852 3.7852h182.98c-1.8164 13.32-13.168 23.609-27.016 23.609h-196.45c-13.773-0.15234-25.125-10.445-26.941-23.688zm223.32-37.23c0 6.2812-7.4922 11.578-16.348 11.578-9.0039 0-16.348-5.2227-16.348-11.578 0-6.3555 7.3398-11.578 16.348-11.578 8.8555 0 16.348 5.2969 16.348 11.578zm-135.01 68.332h73.707v31.859h-73.707zm273.19 178.37h-50.777c-1.9688-40.715-35.645-73.254-76.812-73.254h-32.164c-2.1172 0-3.7852 1.6641-3.7852 3.7852 0 2.1172 1.6641 3.7852 3.7852 3.7852h32.164c37.004 0 67.352 29.137 69.32 65.688l-351.67-0.003906c1.9688-36.551 32.312-65.688 69.32-65.688h155.89c2.1172 0 3.7852-1.6641 3.7852-3.7852 0-2.1172-1.6641-3.7852-3.7852-3.7852h-155.89c-41.168 0-74.844 32.539-76.812 73.254l-50.703 0.003907c-2.1172 0-3.7852-1.6641-3.7852-3.7852 0-74.539 60.617-135.16 135.16-135.16h205.46c74.539 0 135.16 60.617 135.16 135.16-0.074219 2.043-1.7383 3.7852-3.8555 3.7852z"/>
  <path d="m271.9 164.67c-10.441 0-18.844 9.7617-18.844 21.871s8.4766 21.945 18.844 21.945c10.367 0 18.844-9.8359 18.844-21.945s-8.4766-21.871-18.844-21.871zm0 36.172c-6.207 0-11.277-6.4336-11.277-14.379 0-7.8711 5.0703-14.301 11.277-14.301 6.207 0 11.277 6.4336 11.277 14.301 0 7.9453-5.0703 14.379-11.277 14.379z"/>
  <path d="m420.98 208.41c10.367 0 18.844-9.8359 18.844-21.945 0-12.031-8.4766-21.871-18.844-21.871-10.441 0-18.844 9.7617-18.844 21.871-0.074219 12.109 8.3984 21.945 18.844 21.945zm0-36.172c6.207 0 11.277 6.4336 11.277 14.301 0 7.9453-5.0703 14.379-11.277 14.379s-11.277-6.4336-11.277-14.379c-0.074219-7.9453 4.9961-14.301 11.277-14.301z"/>
  <path d="m346.44 272.05c23.082 0 41.926-15.969 41.926-35.645 0-2.1172-1.6641-3.7852-3.7852-3.7852l-76.281 0.003906c-2.1172 0-3.7852 1.6641-3.7852 3.7852 0.003906 19.598 18.77 35.641 41.926 35.641zm33.98-31.859c-2.2695 13.699-16.648 24.293-33.977 24.293-17.328 0-31.707-10.594-33.977-24.293z"/>
  <path d="m467.45 493.1c10.746 0 19.523-9.082 19.523-20.281 0-11.125-8.7773-20.207-19.523-20.207-10.82 0-19.602 9.082-19.602 20.207 0 11.203 8.7812 20.281 19.602 20.281zm0-32.844c6.582 0 11.957 5.6758 11.957 12.637 0 6.9609-5.3711 12.715-11.957 12.715-6.6602 0-12.031-5.6758-12.031-12.715 0-6.9609 5.3711-12.637 12.031-12.637z"/>
  <path d="m232.63 452.69c-10.82 0-19.602 9.082-19.602 20.207 0 11.199 8.7773 20.281 19.602 20.281 10.746 0 19.523-9.082 19.523-20.281 0-11.199-8.7031-20.207-19.523-20.207zm0 32.844c-6.6602 0-12.031-5.6758-12.031-12.715 0-6.9609 5.3711-12.637 12.031-12.637 6.582 0 11.957 5.6758 11.957 12.637-0.003907 7.0391-5.375 12.715-11.957 12.715z"/>
  <use x="70" y="673.511719" xlink:href="#w"/>
  <use x="97.769531" y="673.511719" xlink:href="#d"/>
  <use x="116.429688" y="673.511719" xlink:href="#a"/>
  <use x="142.089844" y="673.511719" xlink:href="#c"/>
  <use x="167.625" y="673.511719" xlink:href="#b"/>
  <use x="185.710938" y="673.511719" xlink:href="#a"/>
  <use x="211.375" y="673.511719" xlink:href="#k"/>
  <use x="251.632812" y="673.511719" xlink:href="#j"/>
  <use x="278.71875" y="673.511719" xlink:href="#i"/>
  <use x="316.554688" y="673.511719" xlink:href="#h"/>
  <use x="345.839844" y="673.511719" xlink:href="#v"/>
  <use x="367.863281" y="673.511719" xlink:href="#c"/>
  <use x="393.394531" y="673.511719" xlink:href="#g"/>
  <use x="445.996094" y="673.511719" xlink:href="#u"/>
  <use x="460.074219" y="673.511719" xlink:href="#t"/>
  <use x="482.59375" y="673.511719" xlink:href="#f"/>
  <use x="509.53125" y="673.511719" xlink:href="#c"/>
  <use x="535.066406" y="673.511719" xlink:href="#s"/>
  <use x="70" y="711.351562" xlink:href="#r"/>
  <use x="86.460938" y="711.351562" xlink:href="#d"/>
  <use x="105.121094" y="711.351562" xlink:href="#e"/>
  <use x="131.117188" y="711.351562" xlink:href="#g"/>
  <use x="183.714844" y="711.351562" xlink:href="#b"/>
  <use x="201.804688" y="711.351562" xlink:href="#f"/>
  <use x="228.742188" y="711.351562" xlink:href="#a"/>
  <use x="267.578125" y="711.351562" xlink:href="#q"/>
  <use x="299.242188" y="711.351562" xlink:href="#e"/>
  <use x="325.238281" y="711.351562" xlink:href="#p"/>
  <use x="352.175781" y="711.351562" xlink:href="#o"/>
  <use x="392.285156" y="711.351562" xlink:href="#n"/>
  <use x="420.019531" y="711.351562" xlink:href="#d"/>
  <use x="438.679688" y="711.351562" xlink:href="#e"/>
  <use x="464.671875" y="711.351562" xlink:href="#m"/>
  <use x="477.644531" y="711.351562" xlink:href="#a"/>
  <use x="503.304687" y="711.351562" xlink:href="#l"/>
  <use x="525.734375" y="711.351562" xlink:href="#b"/>
 </g>
</svg>
