<?xml version="1.0" encoding="UTF-8"?>
<svg width="700pt" height="700pt" version="1.1" viewBox="0 0 700 700" xmlns="http://www.w3.org/2000/svg" xmlns:xlink="http://www.w3.org/1999/xlink">
 <defs>
  <symbol id="u" overflow="visible">
   <path d="m18.906-1.125c-0.98047 0.5-1.9961 0.88281-3.0469 1.1406-1.0547 0.25781-2.1562 0.39062-3.3125 0.39062-3.4297 0-6.1406-0.95703-8.1406-2.875-2-1.9141-3-4.5156-3-7.7969 0-3.2891 1-5.8906 3-7.7969 2-1.9141 4.7109-2.875 8.1406-2.875 1.1562 0 2.2578 0.13281 3.3125 0.39062 1.0508 0.25 2.0664 0.625 3.0469 1.125v4.2656c-0.98047-0.66406-1.9492-1.1562-2.9062-1.4688-0.96094-0.3125-1.9648-0.46875-3.0156-0.46875-1.8984 0-3.3867 0.60547-4.4688 1.8125-1.0859 1.2109-1.625 2.8828-1.625 5.0156 0 2.125 0.53906 3.7969 1.625 5.0156 1.082 1.2109 2.5703 1.8125 4.4688 1.8125 1.0508 0 2.0547-0.15625 3.0156-0.46875 0.95703-0.3125 1.9258-0.80469 2.9062-1.4844z"/>
  </symbol>
  <symbol id="c" overflow="visible">
   <path d="m13.828-11.234c-0.42969-0.19531-0.85547-0.34375-1.2812-0.4375-0.42969-0.10156-0.85938-0.15625-1.2969-0.15625-1.2617 0-2.2344 0.40625-2.9219 1.2188s-1.0312 1.9805-1.0312 3.5v7.1094h-4.9219v-15.438h4.9219v2.5469c0.63281-1.0078 1.3633-1.7422 2.1875-2.2031 0.82031-0.46875 1.8047-0.70312 2.9531-0.70312 0.16406 0 0.34375 0.007813 0.53125 0.015625 0.19531 0.011719 0.47656 0.042969 0.84375 0.09375z"/>
  </symbol>
  <symbol id="b" overflow="visible">
   <path d="m17.781-7.75v1.3906h-11.547c0.125 1.168 0.54688 2.043 1.2656 2.625 0.71875 0.57422 1.7188 0.85938 3 0.85938 1.0391 0 2.1016-0.14844 3.1875-0.45312 1.0938-0.3125 2.2109-0.78125 3.3594-1.4062v3.7969c-1.168 0.4375-2.3359 0.77344-3.5 1-1.168 0.22656-2.3359 0.34375-3.5 0.34375-2.793 0-4.9648-0.70703-6.5156-2.125-1.543-1.4258-2.3125-3.4219-2.3125-5.9844 0-2.5195 0.75391-4.5 2.2656-5.9375 1.5195-1.4375 3.6133-2.1562 6.2812-2.1562 2.4258 0 4.3672 0.73047 5.8281 2.1875 1.457 1.4609 2.1875 3.4141 2.1875 5.8594zm-5.0781-1.6406c0-0.9375-0.27734-1.6914-0.82812-2.2656-0.54297-0.58203-1.2578-0.875-2.1406-0.875-0.94922 0-1.7266 0.27344-2.3281 0.8125-0.59375 0.54297-0.96484 1.3203-1.1094 2.3281z"/>
  </symbol>
  <symbol id="a" overflow="visible">
   <path d="m9.2812-6.9375c-1.0234 0-1.793 0.17969-2.3125 0.53125-0.52344 0.34375-0.78125 0.85547-0.78125 1.5312 0 0.625 0.20703 1.1172 0.625 1.4688 0.41406 0.35547 1 0.53125 1.75 0.53125 0.92578 0 1.7031-0.33203 2.3281-1 0.63281-0.66406 0.95312-1.5 0.95312-2.5v-0.5625zm7.5469-1.8594v8.7969h-4.9844v-2.2812c-0.65625 0.9375-1.4023 1.6211-2.2344 2.0469-0.82422 0.42578-1.8281 0.64062-3.0156 0.64062-1.5938 0-2.8906-0.46094-3.8906-1.3906-0.99219-0.9375-1.4844-2.1484-1.4844-3.6406 0-1.8125 0.61719-3.1406 1.8594-3.9844 1.25-0.84375 3.2031-1.2656 5.8594-1.2656h2.9062v-0.39062c0-0.78125-0.30859-1.3516-0.92188-1.7188-0.61719-0.36328-1.5742-0.54688-2.875-0.54688-1.0547 0-2.0391 0.10938-2.9531 0.32812-0.90625 0.21094-1.75 0.52734-2.5312 0.95312v-3.7656c1.0508-0.25781 2.1094-0.45312 3.1719-0.57812 1.0703-0.13281 2.1406-0.20312 3.2031-0.20312 2.7891 0 4.8008 0.54688 6.0312 1.6406 1.2383 1.0938 1.8594 2.8828 1.8594 5.3594z"/>
  </symbol>
  <symbol id="d" overflow="visible">
   <path d="m7.75-19.812v4.375h5.0938v3.5312h-5.0938v6.5469c0 0.71875 0.14062 1.2031 0.42188 1.4531 0.28906 0.25 0.85938 0.375 1.7031 0.375h2.5469v3.5312h-4.2344c-1.9492 0-3.3281-0.40625-4.1406-1.2188s-1.2188-2.1914-1.2188-4.1406v-6.5469h-2.4531v-3.5312h2.4531v-4.375z"/>
  </symbol>
  <symbol id="j" overflow="visible">
   <path d="m12.875-13.172v-8.2656h4.9531v21.438h-4.9531v-2.2344c-0.6875 0.90625-1.4453 1.5742-2.2656 2-0.8125 0.42578-1.7578 0.64062-2.8281 0.64062-1.8984 0-3.4609-0.75391-4.6875-2.2656-1.2188-1.5195-1.8281-3.4688-1.8281-5.8438s0.60938-4.3164 1.8281-5.8281c1.2266-1.5078 2.7891-2.2656 4.6875-2.2656 1.0703 0 2.0156 0.21484 2.8281 0.64062 0.82031 0.42969 1.5781 1.0898 2.2656 1.9844zm-3.25 9.9844c1.0508 0 1.8516-0.38281 2.4062-1.1562 0.5625-0.76953 0.84375-1.8906 0.84375-3.3594s-0.28125-2.5859-0.84375-3.3594c-0.55469-0.76953-1.3555-1.1562-2.4062-1.1562-1.0547 0-1.8594 0.38672-2.4219 1.1562-0.55469 0.77344-0.82812 1.8906-0.82812 3.3594s0.27344 2.5898 0.82812 3.3594c0.5625 0.77344 1.3672 1.1562 2.4219 1.1562z"/>
  </symbol>
  <symbol id="i" overflow="visible">
   <path d="m10.578-3.1875c1.0625 0 1.8672-0.38281 2.4219-1.1562 0.55078-0.76953 0.82812-1.8906 0.82812-3.3594s-0.27734-2.5859-0.82812-3.3594c-0.55469-0.76953-1.3594-1.1562-2.4219-1.1562-1.0547 0-1.8672 0.39062-2.4375 1.1719-0.5625 0.77344-0.84375 1.8867-0.84375 3.3438 0 1.4609 0.28125 2.5781 0.84375 3.3594 0.57031 0.77344 1.3828 1.1562 2.4375 1.1562zm-3.2812-9.9844c0.6875-0.89453 1.4414-1.5547 2.2656-1.9844 0.82031-0.42578 1.7734-0.64062 2.8594-0.64062 1.8945 0 3.4531 0.75781 4.6719 2.2656 1.2266 1.5117 1.8438 3.4531 1.8438 5.8281s-0.61719 4.3242-1.8438 5.8438c-1.2188 1.5117-2.7773 2.2656-4.6719 2.2656-1.0859 0-2.0391-0.21484-2.8594-0.64062-0.82422-0.42578-1.5781-1.0938-2.2656-2v2.2344h-4.9219v-21.438h4.9219z"/>
  </symbol>
  <symbol id="f" overflow="visible">
   <path d="m0.34375-15.438h4.9375l4.1406 10.484 3.5312-10.484h4.9375l-6.5 16.891c-0.64844 1.7188-1.4062 2.9219-2.2812 3.6094-0.86719 0.6875-2.0117 1.0312-3.4375 1.0312h-2.8438v-3.2344h1.5469c0.83203 0 1.4375-0.13672 1.8125-0.40625 0.38281-0.27344 0.67969-0.75 0.89062-1.4375l0.14062-0.42188z"/>
  </symbol>
  <symbol id="h" overflow="visible">
   <path d="m7.8906-16.562v12.547h1.9062c2.1641 0 3.8203-0.53516 4.9688-1.6094 1.1445-1.0703 1.7188-2.6328 1.7188-4.6875 0-2.0312-0.57422-3.5781-1.7188-4.6406-1.1367-1.0703-2.793-1.6094-4.9688-1.6094zm-5.2969-4.0156h5.5938c3.125 0 5.4453 0.22656 6.9688 0.67188 1.5312 0.44922 2.8438 1.2031 3.9375 2.2656 0.96875 0.92969 1.6875 2 2.1562 3.2188 0.46875 1.2109 0.70312 2.5781 0.70312 4.1094 0 1.5547-0.23438 2.9375-0.70312 4.1562s-1.1875 2.293-2.1562 3.2188c-1.1055 1.0625-2.4297 1.8203-3.9688 2.2656-1.543 0.44922-3.8555 0.67188-6.9375 0.67188h-5.5938z"/>
  </symbol>
  <symbol id="g" overflow="visible">
   <path d="m17.891-9.3906v9.3906h-4.9688v-7.1875c0-1.332-0.03125-2.25-0.09375-2.75-0.054687-0.50781-0.15234-0.88281-0.29688-1.125-0.19922-0.32031-0.46484-0.57031-0.79688-0.75-0.32422-0.17578-0.69922-0.26562-1.125-0.26562-1.0312 0-1.8438 0.39844-2.4375 1.1875-0.58594 0.79297-0.875 1.8906-0.875 3.2969v7.5938h-4.9219v-15.438h4.9219v2.2656c0.75-0.89453 1.5391-1.5547 2.375-1.9844 0.83203-0.42578 1.7539-0.64062 2.7656-0.64062 1.7812 0 3.1328 0.54688 4.0625 1.6406 0.92578 1.0859 1.3906 2.6719 1.3906 4.7656z"/>
  </symbol>
  <symbol id="t" overflow="visible">
   <path d="m-0.28125-20.578h5.8125l4.6719 7.3438 4.6875-7.3438h5.8125l-7.8281 11.906v8.6719h-5.3125v-8.6719z"/>
  </symbol>
  <symbol id="s" overflow="visible">
   <path d="m2.375-15.438h4.9219v15.438h-4.9219zm0-6h4.9219v4.0156h-4.9219z"/>
  </symbol>
  <symbol id="r" overflow="visible">
   <path d="m12.531-21.438v3.2344h-2.7344c-0.69922 0-1.1875 0.13281-1.4688 0.39062-0.27344 0.25-0.40625 0.6875-0.40625 1.3125v1.0625h4.2188v3.5312h-4.2188v11.906h-4.9375v-11.906h-2.4531v-3.5312h2.4531v-1.0625c0-1.6875 0.46875-2.9297 1.4062-3.7344 0.9375-0.80078 2.3906-1.2031 4.3594-1.2031z"/>
  </symbol>
  <symbol id="e" overflow="visible">
   <path d="m9.7188-12.281c-1.0938 0-1.9297 0.39844-2.5 1.1875-0.57422 0.78125-0.85938 1.9141-0.85938 3.3906 0 1.4805 0.28516 2.6172 0.85938 3.4062 0.57031 0.78125 1.4062 1.1719 2.5 1.1719 1.0703 0 1.8906-0.39062 2.4531-1.1719 0.57031-0.78906 0.85938-1.9258 0.85938-3.4062 0-1.4766-0.28906-2.6094-0.85938-3.3906-0.5625-0.78906-1.3828-1.1875-2.4531-1.1875zm0-3.5156c2.6562 0 4.7266 0.71875 6.2188 2.1562 1.4883 1.4297 2.2344 3.4062 2.2344 5.9375s-0.74609 4.5156-2.2344 5.9531c-1.4922 1.4375-3.5625 2.1562-6.2188 2.1562-2.668 0-4.75-0.71875-6.25-2.1562s-2.25-3.4219-2.25-5.9531 0.75-4.5078 2.25-5.9375c1.5-1.4375 3.582-2.1562 6.25-2.1562z"/>
  </symbol>
  <symbol id="q" overflow="visible">
   <path d="m16.672-12.875c0.625-0.94531 1.3633-1.6719 2.2188-2.1719 0.86328-0.5 1.8125-0.75 2.8438-0.75 1.7695 0 3.1172 0.54688 4.0469 1.6406 0.92578 1.0859 1.3906 2.6719 1.3906 4.7656v9.3906h-4.9531v-8.0469-0.35938c0.007812-0.13281 0.015625-0.32031 0.015625-0.5625 0-1.0938-0.16406-1.8828-0.48438-2.375-0.3125-0.48828-0.82812-0.73438-1.5469-0.73438-0.9375 0-1.6641 0.38672-2.1719 1.1562-0.51172 0.77344-0.77734 1.8867-0.79688 3.3438v7.5781h-4.9531v-8.0469c0-1.707-0.15234-2.8047-0.45312-3.2969-0.29297-0.48828-0.8125-0.73438-1.5625-0.73438-0.94922 0-1.6836 0.39062-2.2031 1.1719-0.51172 0.77344-0.76562 1.875-0.76562 3.3125v7.5938h-4.9531v-15.438h4.9531v2.2656c0.61328-0.875 1.3125-1.5312 2.0938-1.9688s1.6445-0.65625 2.5938-0.65625c1.0625 0 2 0.25781 2.8125 0.76562 0.82031 0.51172 1.4453 1.2305 1.875 2.1562z"/>
  </symbol>
  <symbol id="p" overflow="visible">
   <path d="m17.891-9.3906v9.3906h-4.9688v-7.1719c0-1.3438-0.03125-2.2656-0.09375-2.7656-0.054687-0.50781-0.15234-0.88281-0.29688-1.125-0.19922-0.32031-0.46484-0.57031-0.79688-0.75-0.32422-0.17578-0.69922-0.26562-1.125-0.26562-1.0312 0-1.8438 0.39844-2.4375 1.1875-0.58594 0.79297-0.875 1.8906-0.875 3.2969v7.5938h-4.9219v-21.438h4.9219v8.2656c0.75-0.89453 1.5391-1.5547 2.375-1.9844 0.83203-0.42578 1.7539-0.64062 2.7656-0.64062 1.7812 0 3.1328 0.54688 4.0625 1.6406 0.92578 1.0859 1.3906 2.6719 1.3906 4.7656z"/>
  </symbol>
  <symbol id="o" overflow="visible">
   <path d="m2.5938-20.578h5.9219l7.4844 14.109v-14.109h5.0312v20.578h-5.9375l-7.4688-14.109v14.109h-5.0312z"/>
  </symbol>
  <symbol id="n" overflow="visible">
   <path d="m2.2031-6v-9.4375h4.9688v1.5469c0 0.83594-0.007813 1.8867-0.015625 3.1562-0.011719 1.2617-0.015625 2.1016-0.015625 2.5156 0 1.2422 0.03125 2.1367 0.09375 2.6875 0.0625 0.54297 0.17188 0.9375 0.32812 1.1875 0.20703 0.32422 0.47266 0.57422 0.79688 0.75 0.32031 0.17969 0.69531 0.26562 1.125 0.26562 1.0195 0 1.8203-0.39453 2.4062-1.1875 0.59375-0.78906 0.89062-1.8906 0.89062-3.2969v-7.625h4.9375v15.438h-4.9375v-2.2344c-0.74219 0.90625-1.5273 1.5742-2.3594 2-0.83594 0.42578-1.75 0.64062-2.75 0.64062-1.7812 0-3.1406-0.54688-4.0781-1.6406-0.92969-1.0938-1.3906-2.6797-1.3906-4.7656z"/>
  </symbol>
  <symbol id="m" overflow="visible">
   <path d="m2.5938-20.578h8.7969c2.625 0 4.6328 0.58594 6.0312 1.75 1.4062 1.168 2.1094 2.8242 2.1094 4.9688 0 2.1562-0.70312 3.8203-2.1094 4.9844-1.3984 1.1562-3.4062 1.7344-6.0312 1.7344h-3.5v7.1406h-5.2969zm5.2969 3.8438v5.75h2.9375c1.0312 0 1.8203-0.25 2.375-0.75 0.5625-0.5 0.84375-1.207 0.84375-2.125 0-0.91406-0.28125-1.625-0.84375-2.125-0.55469-0.5-1.3438-0.75-2.375-0.75z"/>
  </symbol>
  <symbol id="l" overflow="visible">
   <path d="m2.375-15.438h4.9219v15.156c0 2.0703-0.49609 3.6484-1.4844 4.7344-0.99219 1.0938-2.4297 1.6406-4.3125 1.6406h-2.4375v-3.2344h0.85938c0.9375 0 1.5781-0.21484 1.9219-0.64062 0.35156-0.42969 0.53125-1.2617 0.53125-2.5zm0-6h4.9219v4.0156h-4.9219z"/>
  </symbol>
  <symbol id="k" overflow="visible">
   <path d="m14.844-14.953v4.0312c-0.67969-0.45703-1.3555-0.79688-2.0312-1.0156-0.66797-0.22656-1.3672-0.34375-2.0938-0.34375-1.375 0-2.4492 0.40625-3.2188 1.2188-0.76172 0.80469-1.1406 1.9219-1.1406 3.3594 0 1.4492 0.37891 2.5742 1.1406 3.375 0.76953 0.80469 1.8438 1.2031 3.2188 1.2031 0.76953 0 1.5-0.11328 2.1875-0.34375 0.69531-0.22656 1.3438-0.56641 1.9375-1.0156v4.0312c-0.77344 0.28125-1.5586 0.49219-2.3594 0.64062-0.79297 0.14453-1.5898 0.21875-2.3906 0.21875-2.7812 0-4.9609-0.71094-6.5312-2.1406-1.5625-1.4375-2.3438-3.4258-2.3438-5.9688 0-2.5391 0.78125-4.5234 2.3438-5.9531 1.5703-1.4258 3.75-2.1406 6.5312-2.1406 0.8125 0 1.6094 0.074219 2.3906 0.21875 0.78906 0.13672 1.5781 0.34375 2.3594 0.625z"/>
  </symbol>
 </defs>
 <g>
  <path d="m221.16 82.902 0.22266 0.91797-1.8203 0.4375-0.22266-0.91797z"/>
  <path d="m230.91 123.91-1.8281 0.43359-0.43359-1.8242 1.8281-0.43359z"/>
  <path d="m227.42 109.33-1.8242 0.43359-0.43359-1.8164 1.8242-0.43359z"/>
  <path d="m231.76 127.55-1.8242 0.43359-0.43359-1.8164 1.8242-0.43359z"/>
  <path d="m228.29 112.97-1.8242 0.43359-0.43359-1.8164 1.8242-0.43359z"/>
  <path d="m226.56 105.68-1.8242 0.43359-0.43359-1.8242 1.8242-0.43359z"/>
  <path d="m229.16 116.62-1.8281 0.42969-0.42969-1.8242 1.8281-0.42969z"/>
  <path d="m232.64 131.2-1.8281 0.43359-0.43359-1.8164 1.8281-0.43359z"/>
  <path d="m230.04 120.26-1.8164 0.43359-0.4375-1.8242 1.8164-0.43359z"/>
  <path d="m239.55 160.36-1.8242 0.43359-0.43359-1.8242 1.8242-0.43359z"/>
  <path d="m240.43 164-1.8281 0.43359-0.43359-1.8164 1.8281-0.43359z"/>
  <path d="m241.28 167.64-1.8242 0.43359-0.43359-1.8164 1.8242-0.43359z"/>
  <path d="m242.16 171.3-1.8242 0.42969-0.42969-1.8242 1.8242-0.42969z"/>
  <path d="m225.71 102.05-1.8242 0.42969-0.42969-1.8242 1.8242-0.42969z"/>
  <path d="m243.04 174.94-1.8281 0.43359-0.43359-1.8242 1.8281-0.43359z"/>
  <path d="m236.97 149.43-1.8281 0.43359-0.43359-1.8164 1.8281-0.43359z"/>
  <path d="m238.7 156.72-1.8281 0.43359-0.43359-1.8242 1.8281-0.43359z"/>
  <path d="m234.36 138.49-1.8242 0.43359-0.43359-1.8242 1.8242-0.43359z"/>
  <path d="m236.09 145.78-1.8242 0.43359-0.43359-1.8164 1.8242-0.43359z"/>
  <path d="m237.83 153.05-1.8164 0.42969-0.42969-1.8242 1.8164-0.42969z"/>
  <path d="m233.5 134.85-1.8242 0.42969-0.42969-1.8242 1.8242-0.42969z"/>
  <path d="m235.24 142.14-1.8281 0.43359-0.43359-1.8242 1.8281-0.43359z"/>
  <path d="m224.84 98.391-1.8281 0.42969-0.42969-1.8242 1.8281-0.42969z"/>
  <path d="m222.25 87.457-1.8164 0.43359-0.4375-1.8242 1.8164-0.43359z"/>
  <path d="m223.11 91.109-1.8281 0.43359-0.43359-1.8242 1.8281-0.43359z"/>
  <path d="m223.96 94.75-1.8242 0.43359-0.43359-1.8164 1.8242-0.43359z"/>
  <path d="m243.68 177.68-1.8281 0.43359-0.21875-0.91016 1.8281-0.43359z"/>
  <path d="m248.39 378.68c-2.0664 0-3.7539 1.6875-3.7539 3.7539s1.6875 3.7539 3.7539 3.7539 3.7539-1.6875 3.7539-3.7539-1.6875-3.7539-3.7539-3.7539zm0 5.6328c-1.0391 0-1.8789-0.83984-1.8789-1.8789 0-1.0312 0.83984-1.875 1.8789-1.875 1.0312 0 1.8789 0.83984 1.8789 1.875 0 1.0391-0.84375 1.8789-1.8789 1.8789z"/>
  <path d="m211.8 386.19c1.6641 0 2.9766-1.6484 2.9766-3.7539 0-2.1016-1.3086-3.7539-2.9766-3.7539-1.6641 0-2.9648 1.6523-2.9648 3.7539-0.003906 2.1055 1.3008 3.7539 2.9648 3.7539zm0-5.6289c0.51953 0 1.0938 0.80078 1.0938 1.875 0 1.0742-0.58203 1.8789-1.0938 1.8789s-1.0898-0.80859-1.0898-1.8789c0-1.0742 0.57031-1.875 1.0898-1.875z"/>
  <path d="m307.22 277.11c0-5.2383-4.2617-9.5-9.5-9.5-5.2422 0-9.5039 4.2617-9.5039 9.5s4.2617 9.5039 9.5039 9.5039c5.2383-0.003906 9.5-4.2656 9.5-9.5039zm-9.5 7.625c-4.207 0-7.6328-3.4219-7.6328-7.6328 0-4.1992 3.4219-7.625 7.6328-7.625 4.1992 0 7.6211 3.4219 7.6211 7.625 0 4.2148-3.4219 7.6328-7.6211 7.6328z"/>
  <path d="m299.71 350.65c0 2.6562-3.9844 2.6562-3.9844 0s3.9844-2.6562 3.9844 0"/>
  <path d="m299.71 345.14c0 2.6602-3.9844 2.6602-3.9844 0 0-2.6562 3.9844-2.6562 3.9844 0"/>
  <path d="m299.71 339.62c0 2.6562-3.9844 2.6562-3.9844 0s3.9844-2.6562 3.9844 0"/>
  <path d="m299.71 334.11c0 2.6562-3.9844 2.6562-3.9844 0s3.9844-2.6562 3.9844 0"/>
  <path d="m299.71 328.59c0 2.6562-3.9844 2.6562-3.9844 0s3.9844-2.6562 3.9844 0"/>
  <path d="m408.84 276.72 36.887 15.082 39.73-14.742v-68.836h-76.617zm1.875-66.617h72.871v7.8164h-72.871zm0 9.6914h72.871v55.953l-37.824 14.031-35.047-14.32z"/>
  <path d="m347.23 148.8c1.5469 0 2.8125-1.2656 2.8125-2.8164s-1.2656-2.8164-2.8125-2.8164c-1.5508 0-2.8164 1.2656-2.8164 2.8164s1.2617 2.8164 2.8164 2.8164zm0-3.7539c0.51953 0 0.9375 0.41797 0.9375 0.9375s-0.41797 0.9375-0.9375 0.9375c-0.51953 0-0.94141-0.41797-0.94141-0.9375s0.42578-0.9375 0.94141-0.9375z"/>
  <path d="m347.23 203.21c1.5469 0 2.8125-1.2656 2.8125-2.8125 0-1.5508-1.2656-2.8164-2.8125-2.8164-1.5508 0-2.8164 1.2656-2.8164 2.8164 0 1.5508 1.2617 2.8125 2.8164 2.8125zm0-3.75c0.51953 0 0.9375 0.42188 0.9375 0.94141s-0.41797 0.9375-0.9375 0.9375c-0.51953 0-0.94141-0.41797-0.94141-0.9375s0.42578-0.94141 0.94141-0.94141z"/>
  <path d="m345.35 257.64c1.5508 0 2.8164-1.2656 2.8164-2.8164 0-1.5469-1.2656-2.8125-2.8164-2.8125-1.5469 0-2.8164 1.2656-2.8164 2.8125 0 1.5547 1.2656 2.8164 2.8164 2.8164zm0-3.7539c0.51953 0 0.9375 0.42188 0.9375 0.9375 0 0.51953-0.41797 0.94141-0.9375 0.94141-0.51953 0-0.9375-0.42188-0.9375-0.94141 0-0.51172 0.41797-0.9375 0.9375-0.9375z"/>
  <path d="m342.84 312.06c1.5508 0 2.8164-1.2656 2.8164-2.8164 0-1.5508-1.2656-2.8125-2.8164-2.8125-1.5469 0-2.8125 1.2578-2.8125 2.8125 0 1.5508 1.2656 2.8164 2.8125 2.8164zm0-3.7539c0.51953 0 0.9375 0.41797 0.9375 0.9375 0 0.51953-0.41797 0.9375-0.9375 0.9375s-0.9375-0.41797-0.9375-0.9375c0-0.51953 0.42188-0.9375 0.9375-0.9375z"/>
  <path d="m341.28 366.49c1.5508 0 2.8164-1.2695 2.8164-2.8164s-1.2656-2.8164-2.8164-2.8164c-1.5469 0-2.8125 1.2695-2.8125 2.8164 0.003906 1.543 1.2695 2.8164 2.8125 2.8164zm0-3.7617c0.51953 0 0.94141 0.42188 0.94141 0.94141s-0.42188 0.9375-0.94141 0.9375c-0.51953 0-0.9375-0.41797-0.9375-0.9375 0.003906-0.51562 0.42188-0.94141 0.9375-0.94141z"/>
  <path d="m382.57 179.13c0.51953 0 0.9375-0.41797 0.9375-0.9375v-6.2539c0-0.51953-0.41797-0.9375-0.9375-0.9375-0.51953 0-0.9375 0.41797-0.9375 0.9375v6.2539c0 0.51953 0.41797 0.9375 0.9375 0.9375z"/>
  <path d="m382.57 230.74c0.51953 0 0.9375-0.41797 0.9375-0.9375v-6.2539c0-0.51953-0.41797-0.9375-0.9375-0.9375-0.51953 0-0.9375 0.41797-0.9375 0.9375v6.2539c0 0.51953 0.41797 0.9375 0.9375 0.9375z"/>
  <path d="m382.57 285.17c0.51953 0 0.9375-0.42188 0.9375-0.94141v-6.2539c0-0.51953-0.41797-0.9375-0.9375-0.9375-0.51953 0-0.9375 0.41797-0.9375 0.9375v6.2539c0 0.51172 0.41797 0.94141 0.9375 0.94141z"/>
  <path d="m382.57 339.59c0.51953 0 0.9375-0.41797 0.9375-0.9375v-6.2539c0-0.51953-0.41797-0.9375-0.9375-0.9375-0.51953 0-0.9375 0.41797-0.9375 0.9375v6.2539c0 0.51953 0.41797 0.9375 0.9375 0.9375z"/>
  <path d="m382.57 394c0.51953 0 0.9375-0.41797 0.9375-0.9375v-6.25c0-0.51953-0.41797-0.9375-0.9375-0.9375-0.51953 0-0.9375 0.41797-0.9375 0.9375v6.25c0 0.51953 0.41797 0.9375 0.9375 0.9375z"/>
  <path d="m383.51 447.49v-6.2617c0-0.51953-0.41797-0.9375-0.9375-0.9375-0.51953 0-0.9375 0.41797-0.9375 0.9375v6.2617c0 0.51953 0.41797 0.9375 0.9375 0.9375 0.51953 0 0.9375-0.41797 0.9375-0.9375z"/>
  <path d="m116.26 272.76 7.9805 11.621h130.71l2.6758-6.2422v-55.367c1.5117-10.93 1.293-12.242 1.2305-12.668-0.20703-2.207-0.10156-62.559 0.023438-102.59v-0.097656l-4.0938-28.695-0.074219-0.33203c-1.7031-5.7812-2.9297-10.316-3.0352-10.988-0.011719-1.3828-0.30859-11.762-0.30859-11.875l-0.078125-2.6016-29.91 4.0117-90.062-1.2148-1.2461 7.4922-9.9961 0.054687-0.71094 23.809 1.207 2.4141-2.7422 25.012-0.015625 0.074219v41.633l-0.625 16.379 0.30859 8.7305-2.1836 7.168zm23.875-197.01-0.011718-0.38281-0.95312 0.20312c-2.1328-0.38281-4.3594-0.58594-6.6328-0.58594-3.3633 0-5.832 0.42188-6.625 0.58594l-0.98828-0.1875v0.39063l-1.957 0.41797 0.28906-9.6562 44.758-0.25391v20.609l-44.469 1.2148-0.875-1.7539 0.28125-9.4336 2.0156 0.37891 0.015625 0.37891 0.95312-0.19922c2.1289 0.38281 4.3516 0.58594 6.6328 0.58594 3.3711 0 5.8438-0.42969 6.6328-0.58594l0.97656 0.16406v-0.37109l3.7969-0.80859zm115.48 134.89c0.11719 0.78516-0.55469 6.6328-1.2812 11.844l-0.003907 54.977-1.5586 3.6406h-6.2617v-103.83l0.94141-47.59-3.9844-49.027 8.1797-0.60938 3.9336 27.527c-0.11719 38.148-0.25781 102.19 0.035157 103.07zm-135.11-37.246c3.6562-0.53125 17.328-3.4219 17.328-17.094v-37.668l5.1367-24.062 0.22656-5.125 24.812-0.67578v1.2305h8.9141l-0.003906-1.6641 45.742-5.9961 21.973 95.016 0.003907 103.75h-118.66l-6.4414-9.3711-0.9375-82.762 2.1953-7.2031zm0.007813-1.8828 0.58594-15.207v-41.539l2.7188-24.785 17.5-0.48047-0.19922 4.7656-5.1406 24.086-0.023437 37.961c0 12.039-11.793 14.672-15.441 15.199zm49.379-83.395v-21.852l5.1602-0.035156v21.883zm54.637-6.0156 0.625-0.085937 16.438-1.2188 3.9805 48.949-0.78906 39.934zm0.44531-1.9492-48.047 6.293v-20.242l35.707-4.793 0.37891 0.003906v-0.054687l35.098-4.707c0.078125 2.7539 0.28125 10.074 0.28125 10.82 0 0.87109 1.7852 7.1172 2.8398 10.719zm-25.414-18.867-22.852 3.0625h-8.6914v0.050782l-34.852 0.20312 0.66797-4.0039z"/>
  <path d="m185.84 363.2-0.48047-0.63672-0.76172-0.20703c-0.61719-0.17969-15.18-4.582-15.18-22.137 0-18.086 4.9727-24.012 4.9883-24.035l0.73438-0.77344-0.49609-5.3867-0.64844-0.60938c-0.42969-0.40234-10.82-9.8828-33.957-10.008l-2.1719-0.9375-0.46094-0.003906s-0.82031-0.015625-2.1172-0.015625c-13.699 0-16.832 1.3789-18.035 2.5781l-0.11719 0.11719c-2.668 2.6602-7.1328 7.0938-7.1328 38.445v73.215c0.023438 2.0508 0.83594 50.293 18.578 66.742l0.55469 0.38281c0.27734 0.12891 2.7656 1.3203 6.25 1.3203 3.7695 0 9.1836-1.3867 13.762-7.9492 0.42969-0.19922 0.82422-0.48438 1.2031-0.87109 1.0547-1.0781 4.2617-4.3516 3.7656-27.828l0.6875-2.9961 3.4102-2.7891 0.19141-0.73828c0.10547-0.38281 10.301-38.727 18.934-49.148 6.125-7.3906 9.6406-12.469 9.9023-14.297l0.078124-0.54688-0.49609-1.4961c0.70703-1.7227 1.8203-5.6484-0.98438-9.3906zm-35.031 81.059v0.11719c0.52344 23.504-2.7109 25.762-3.0156 25.93l-0.52344-0.14062-0.078125 0.11328c-3.7461-0.42969-7.5469-7.7383-10.859-18.137 2.8164-0.25391 9.5664-2.0273 11.645-12.922 0.35547-1.875 0.74609-3.8047 1.1562-5.7969 1 0.12891 2.1406 0.21875 3.3516 0.21875 1.332 0 2.6094-0.11328 3.8164-0.33203-0.50391 1.7734-0.84766 3.0547-1.0039 3.6289l-3.4492 2.8359zm-15.434 33.707c-2.4062 0-4.2227-0.72656-4.6719-0.92578-16.605-15.602-17.418-63.797-17.418-64.27l-0.003906-73.188c0-29.988 4.1602-34.121 6.1641-36.113l0.12891-0.125c0.80859-0.80078 5.9766-1.6133 15.707-1.6133h0.54297c-1.9062 1.0273-4.0195 3.168-5.0117 7.6328-1.3711 6.1641-2.0781 28.941-2.5977 45.562-0.19922 6.5234-0.37109 12.164-0.55469 15.578-0.11719 2.2227-0.30078 4.8203-0.48438 7.5586-0.875 12.66-2.0781 30 0.49609 45.195 1.8633 10.98 8.4688 45.469 18.375 48.707-3.6602 4.9023-7.7773 6-10.672 6zm30.758-137.76c0 18.09 13.988 24.035 17.012 25.105 0.19922 1.4609-0.46094 1.8477-0.73828 2-2.5117 1.3984-9.4453-0.96484-12.734-3.0195-0.050781-0.039063-0.10156-0.078125-0.14844-0.11719l-0.011719 0.015624c-0.48047-0.30859-0.87109-0.60547-1.1523-0.87891-2.625-2.625-5.7734-2.3594-7.2969-2.0312-10.008-25.293 5.7227-43.395 10.566-48.172l0.10547 1.1445c-1.1914 1.5469-5.6016 8.4258-5.6016 25.953zm17.195 28.742c0.31641-0.17578 0.6875-0.45312 1.0156-0.86328 0.15625 1.8672-0.62109 3.4141-0.82422 3.7695-0.24219 0.1875-2.2344 1.3828-9.7656-0.97656-0.066406-1.0156-0.32031-1.9883-0.78516-2.9141 2.4062 0.9375 5.0898 1.6328 7.3203 1.6328 1.1758 0 2.2227-0.19141 3.0391-0.64844zm-24.438 24.078c-1.4805-0.44531-3.0547 0.39453-3.5039 1.8789-0.21484 0.72266-0.13672 1.4844 0.21875 2.1445 0.35547 0.66016 0.94141 1.1445 1.6602 1.3594 0.039063 0.015626 0.37109 0.11719 0.92969 0.25-0.42969 0.88672-0.84766 1.7852-1.2578 2.6992-0.59375-0.12891-0.96094-0.23828-0.98047-0.23828-1.4805-0.44141-3.0547 0.39453-3.5 1.8789-0.21484 0.72266-0.14062 1.4844 0.21484 2.1445 0.35547 0.66016 0.94141 1.1445 1.6641 1.3672 0.023437 0.003906 0.17578 0.050781 0.41797 0.11719-0.40234 1.0547-0.79688 2.1172-1.1758 3.1797-0.62109-0.12891-1.0117-0.24219-1.0234-0.24219-1.4844-0.44141-3.0547 0.39453-3.5039 1.8789-0.21875 0.72266-0.14062 1.4844 0.20703 2.1445 0.35547 0.66016 0.94922 1.1445 1.6641 1.3672 0.046875 0.011718 0.35547 0.10156 0.87891 0.23047-0.30859 1.0234-0.61719 2.0391-0.90234 3.0664-0.63672-0.12891-1.0391-0.24219-1.0508-0.24219-1.4805-0.44141-3.0547 0.39453-3.5039 1.875-0.21484 0.72656-0.14062 1.4883 0.21484 2.1523 0.35547 0.66016 0.94922 1.1445 1.6641 1.3672 0.050782 0.011719 0.48438 0.14062 1.207 0.30859-0.33984 1.3086-0.65625 2.625-0.96094 3.9102-0.94141-0.17578-1.5312-0.34375-1.5508-0.35547-1.4805-0.44141-3.0547 0.39453-3.5039 1.8867-0.21484 0.71875-0.14062 1.4805 0.21484 2.1406 0.35547 0.66016 0.94922 1.1445 1.6641 1.3672 0.0625 0.023437 0.80078 0.24219 1.9805 0.47266-0.41016 1.9648-0.79688 3.8828-1.1445 5.7344-2 10.516-8.4961 11.406-10.375 11.441-1.2539-4.1328-2.4258-8.6875-3.4922-13.449 0.41797 0.054687 0.88672 0.089843 1.3984 0.089843 1.2969 0 2.8438-0.24219 4.2891-1.0664 2.082-1.2031 3.4531-3.3398 4.082-6.3516 1.7852-8.6289 10.594-32.645 17.133-46.703 4.707-10.113 7.6445-15.449 8.7891-17.43 0.17578 0.125 0.37109 0.25781 0.58203 0.39062 6.125 4.4609 3.2578 9.7891-3.793 21.336-1.0938 1.8008-2.2734 3.7266-3.4766 5.7734-0.089844 0.15234-0.16797 0.31641-0.25781 0.46875-1.2695-0.17188-2.1055-0.34375-2.1172-0.34375zm1.125 2.0977c-0.32031 0.59375-0.63672 1.2031-0.94922 1.8125-0.75-0.16406-1.207-0.30469-1.2578-0.31641-0.24219-0.078125-0.43359-0.23828-0.55469-0.45703-0.11719-0.21875-0.14062-0.47266-0.078125-0.71094 0.15234-0.49609 0.67188-0.78516 1.168-0.625 0.027344 0 0.66406 0.14453 1.6719 0.29688zm-3.8359 7.9922c-0.25 0.58594-0.49219 1.1641-0.73438 1.7539-0.34375-0.089844-0.54297-0.14062-0.57422-0.15234-0.24219-0.078125-0.43359-0.23828-0.55469-0.45703-0.11719-0.21875-0.14062-0.47266-0.078125-0.71094 0.15234-0.49609 0.67578-0.77734 1.168-0.625 0.023438-0.007813 0.30078 0.070312 0.77344 0.19141zm-3.2109 8.4844c-0.19922 0.59766-0.40234 1.1953-0.59375 1.7891-0.53516-0.11719-0.85938-0.21875-0.89844-0.23047-0.23828-0.078124-0.43359-0.23828-0.55859-0.45703-0.11719-0.21875-0.14062-0.47266-0.066407-0.71094 0.14063-0.49609 0.67188-0.77734 1.168-0.625 0.011719-0.003906 0.36719 0.097656 0.94922 0.23438zm-2.5664 8.4609c-0.16797 0.60547-0.34375 1.2266-0.49609 1.8281-0.67188-0.15234-1.0781-0.27734-1.125-0.28906-0.24219-0.078125-0.44141-0.23047-0.55859-0.45312-0.11719-0.23047-0.14062-0.48438-0.074218-0.71875 0.15234-0.49609 0.67187-0.78516 1.168-0.625 0.019532 0.003906 0.41797 0.11328 1.0859 0.25781zm-2.3281 9.4023c-0.14062 0.60547-0.27734 1.2266-0.40625 1.8281-1.0781-0.20703-1.7656-0.40625-1.8164-0.42969-0.24219-0.066407-0.44141-0.23047-0.55859-0.45313-0.11719-0.21875-0.14062-0.47266-0.074219-0.71875 0.15234-0.49609 0.67188-0.77344 1.168-0.625 0.023437 0.015626 0.66016 0.19922 1.6875 0.39844zm11.562-66.691 0.35547 0.83984 0.84766-0.32813c0.035156-0.015624 3.0781-1.1406 5.6562 0.875-1.0391 1.7656-4.0195 7.0898-9.0312 17.871-5.9766 12.832-15.301 37.594-17.277 47.121-0.50781 2.4609-1.5703 4.1641-3.168 5.0898-1.875 1.0781-4.082 0.85938-5.1992 0.63672-0.83984-3.9102-1.6133-7.9375-2.2969-11.961-2.5352-14.969-1.3438-32.18-0.47266-44.75 0.1875-2.75 0.36719-5.3438 0.48438-7.5859 0.17578-3.4336 0.35547-9.0781 0.55469-15.617 0.51953-16.555 1.2266-39.23 2.5586-45.219 1.5312-6.9258 5.8867-7.125 6.6836-7.0938l0.027344 0.011719h0.19141c18.633 0 28.637 6.4023 31.402 8.4844-4.2852 4.0352-22.871 23.715-11.316 51.625zm-7.1523 68.996c-1.0664 0-2.0703-0.078126-2.957-0.1875 0.12891-0.60547 0.26953-1.2266 0.40625-1.8398 2.1445 0.24219 4.9453 0.26562 7.5586-0.58594-0.21875 0.75-0.41797 1.457-0.60938 2.1172-1.3555 0.32031-2.8359 0.49609-4.3984 0.49609zm4.9688-4.5742c-2.3594 0.91406-5.0352 0.92578-7.1016 0.70703 0.29297-1.2695 0.60938-2.5586 0.9375-3.8516 1.1641 0.17578 2.5859 0.33203 4.125 0.33203 1.2578 0 2.4609-0.11328 3.6016-0.30078-0.31641 1.0273-0.60938 2.0039-0.89844 2.9531-0.21875 0.023438-0.44922 0.070313-0.66406 0.16016zm-2.0391-4.6953c-1.3672 0-2.6172-0.11719-3.6562-0.26562 0.15234-0.61719 0.32813-1.2266 0.49609-1.8281 2.1523 0.32031 5.1719 0.51953 7.957-0.11719-0.19922 0.59375-0.37891 1.1797-0.56641 1.7656-1.3086 0.28516-2.7188 0.44531-4.2305 0.44531zm-2.6484-3.9297c0.28906-1.0039 0.58594-2.0039 0.89844-3.0156 1.2188 0.20312 2.7539 0.37891 4.4531 0.37891 1.2578 0 2.4648-0.11328 3.6133-0.30469-0.28125 0.83984-0.55859 1.6719-0.82422 2.4844-2.6367 0.94141-5.8555 0.77734-8.1406 0.45703zm5.3516-4.5156c-1.4688 0-2.8008-0.13672-3.8906-0.30859 0.19922-0.59375 0.39453-1.1914 0.60547-1.7852 2.1836 0.35547 5.3125 0.625 8.1562-0.015625-0.1875 0.55469-0.37109 1.0898-0.56641 1.6367-1.3281 0.30859-2.7734 0.47266-4.3047 0.47266zm-2.668-3.8945c0.37109-1.0508 0.76172-2.0938 1.168-3.1289 1.2773 0.23047 2.9844 0.45703 4.8945 0.45703 1.1016 0 2.1602-0.089844 3.1797-0.23047-0.30859 0.83594-0.61719 1.6758-0.92578 2.5156-2.6523 0.96094-5.9766 0.74219-8.3164 0.38672zm6.0625-4.5508c-1.6016 0-3.0586-0.16797-4.1953-0.35547 0.23828-0.59375 0.49219-1.1797 0.74609-1.7656 2.1211 0.35937 5.2031 0.66016 8.0508 0.085937-0.21484 0.54688-0.42969 1.0938-0.64453 1.6484-1.2305 0.25391-2.5586 0.38672-3.957 0.38672zm-2.6719-3.8984c0.40625-0.89844 0.82422-1.7891 1.2656-2.6758 1.2031 0.19141 2.7031 0.35547 4.3477 0.35547 1.2305 0 2.4062-0.10156 3.5156-0.28125-0.32031 0.74609-0.64453 1.5078-0.97266 2.2812-2.6289 0.89062-5.8711 0.66406-8.1562 0.32031zm5.6055-4.1875c-1.2695 0-2.4492-0.10547-3.4492-0.25 0.33984-0.63672 0.67578-1.2695 1.0273-1.8906 2.2344 0.22656 5.1367 0.32031 7.7617-0.22656-0.30078 0.60547-0.58594 1.2266-0.87891 1.8555-1.375 0.33594-2.8633 0.51172-4.4609 0.51172zm-1.3984-3.9414c1.1328-1.9414 2.2461-3.7656 3.2969-5.4805 3.7383-6.1289 6.7695-11.098 7.332-15.281 3.3867 1.0273 5.793 1.3711 7.4844 1.3711 1.1797 0 2-0.16406 2.5898-0.37891l0.16406 0.48438c-0.30859 0.74609-1.8555 3.7695-9.1172 12.535-1.2812 1.5391-2.5781 3.6289-3.8594 6.0508-2.3789 0.86328-5.4492 0.88672-7.8906 0.69922z"/>
  <path d="m269.09 384.08c-1.043-6.332-2.1172-12.887-2.9258-19.371-0.625-5.1133-1.2344-10.617-1.3555-16.109-0.035156-1.3945-0.023438-3.1289-0.015625-4.8047 0.050781-12.066 0.12891-30.312-9.8945-40.387-4.5195-4.5312-10.605-6.8359-18.078-6.8359-9.9062 0-24.375 8.5586-24.852 21.984-0.78906 1.3203-2.5625 4.5898-3.1172 8.1562-0.78516 5.0703-3.1836 19.52-4.9258 25.328-1.8984 6.3125-3.6797 12.277-1.207 19 2.0312 5.5156 3.8516 23.605 3.918 38.918-1.2578 1.8398-1.875 5.5312-1.875 11.242v1.6211c-0.023438 9.9453-0.046875 22.324 4.9062 33.141 4.2148 9.2305 10.727 19.824 23.715 19.824 16.363 0 28.188-14.945 35.137-44.43l0.023438-0.12891c0.15625-1.1328 0.32031-2.2578 0.48438-3.3984l0.066406-0.45312c1.5977-11.16 3.25-22.695 1.457-34.285-0.47656-3.0078-0.96484-6.0156-1.4609-9.0117zm-3.25 42.84c-0.1875 1.293-0.36719 2.5781-0.53125 3.7695-6.5469 27.75-17.289 41.816-31.926 41.816-8.6758 0-15.07-5.5273-20.727-17.906-4.6523-10.164-4.6289-22.137-4.6055-31.773v-1.6211c0-0.69531 0.011719-1.3203 0.027344-1.9297 0.12891 7.9805 0.59766 19.57 2.1953 25.32l0.21875 0.82031c2.4883 9.0703 6.668 24.277 21.953 24.277 9.4219 0 17.172-9.0547 19.32-11.82 7.2266-9.3125 11.961-21.332 13.684-34.738 1.1914-9.2852 2.1602-18.344 0.92578-27.066-0.23047-1.6094-0.50781-3.2383-0.77344-4.8203-0.20703-1.1953-0.40625-2.3945-0.59375-3.5859-1.3555-8.8242-2.2578-16.008-2.8438-22.645-0.28906-3.3828-0.625-7.8281-0.625-12.312 0-17.109-0.83984-35.582-7.1133-42.836-6.0508-7.0117-14.562-10.238-22.746-8.6406-7.1758 1.4062-11.961 6.7344-15.258 12.113 3.3828-8.2969 13.367-13.496 20.41-13.496 6.5703 0 11.875 1.9766 15.754 5.8711 9.0586 9.1055 8.9844 27.223 8.9336 38.055-0.003906 1.7773-0.015625 3.4648 0.015625 4.8867 0.12891 5.6289 0.73828 11.223 1.3867 16.438 0.80859 6.5312 1.8867 13.117 2.9336 19.492 0.49219 2.9961 0.98047 5.9961 1.4492 8.9922 1.7188 11.129 0.097656 22.418-1.4648 33.34zm-43.277 8.3672c2.375 0.72656 5.0859 1.2578 8.0039 1.2578 4.418 0 8.3086-0.87891 11.227-1.8281 3.043 4.8359 8.1211 8.7656 15.895 9.5273-2.0391 4.5547-4.5156 8.7539-7.4102 12.492-2.0195 2.6016-9.2734 11.09-17.836 11.09-13.859 0-17.633-13.777-20.133-22.898l-0.22656-0.82031c-0.16797-0.60547-0.32812-1.2969-0.46875-2.0391 1.3359-0.16406 3.4727-0.58594 5.6211-1.6875 1.8516-0.94531 3.9102-2.5273 5.3281-5.0938zm-1-2.3047c-4.2578-1.5742-7.0312-3.6914-7.207-3.8398-0.19922-0.15234-0.32812-0.37109-0.35547-0.61719-0.027344-0.25391 0.039062-0.49609 0.1875-0.69531 0.17969-0.23047 0.45312-0.35938 0.74609-0.35938 0.20703 0 0.40625 0.066406 0.58203 0.19922 0.17578 0.12891 2.7188 2.0391 6.5859 3.4922-0.15625 0.65234-0.32812 1.2578-0.53906 1.8203zm0.62891-29.809c-0.10156-0.72266-0.20703-1.4297-0.30859-2.1172 2.4453 0.9375 5.4258 1.7109 8.6797 1.7109 3.1602 0 6.0234-0.50781 8.375-1.1406-0.035156 0.65625-0.066406 1.3047-0.10156 1.9688-2.375 0.59375-5.1875 1.0508-8.2812 1.0508-3.0938-0.003907-5.9375-0.64844-8.3633-1.4727zm0.13281 20.051c-4.6719-1.5742-7.7852-3.9336-7.9688-4.0938-0.19922-0.14062-0.32812-0.37109-0.35547-0.61719-0.027344-0.25391 0.039062-0.49609 0.1875-0.69531 0.17969-0.23047 0.45312-0.35937 0.74609-0.35937 0.20703 0 0.40625 0.066406 0.58203 0.19922 0.17578 0.12891 2.7812 2.0938 6.7188 3.5508 0.027344 0.67187 0.0625 1.3555 0.089844 2.0156zm-1.5078-28.562c2.75 1.0273 6.0898 1.8398 9.75 1.8398 3.2461 0 6.2109-0.47266 8.7109-1.1016-0.074219 1.3828-0.14844 2.8008-0.22656 4.2344-2.3359 0.67188-5.2617 1.2539-8.4844 1.2539-3.4336 0-6.5859-0.96094-9.0273-2.0078-0.24609-1.5078-0.48437-2.9219-0.72266-4.2188zm0.72266 18.289c-4.2461-1.5625-7.0117-3.6797-7.1875-3.8203-0.19922-0.14844-0.32812-0.36719-0.35547-0.62109-0.027344-0.25 0.039062-0.49609 0.1875-0.69531 0.17969-0.23047 0.45312-0.35938 0.74609-0.35938 0.20703 0 0.40625 0.066407 0.58203 0.20312 0.15625 0.11719 2.3828 1.7773 5.7969 3.1797 0.078125 0.70312 0.15234 1.4062 0.23047 2.1133zm-11.461-42.336c-0.73438-1.5-1.2148-3.2383-1.0625-3.5859 0.30859-0.11719 1.457 0.17578 2.5664 0.45703 2.6602 0.67578 7.1133 1.8008 14.285 1.8008 13.652 0 20.285-5.3008 23.121-7.5742 0.30078-0.23047 0.61719-0.49609 0.87109-0.67188 0.30078 1.2031 0.31641 4.375 0.11719 7.1797-0.79687 0.72656-1.5625 1.3945-2.3203 2.043-3.8555 3.2891-7.1758 6.1367-7.7109 13.969-0.11328 1.5117-0.21875 3.2812-0.33984 5.2148-2.4219 0.74609-5.5586 1.418-9.0547 1.418-4.5391 0-8.5859-1.6719-11.133-3.0273-1.8047-7.5859-4.8672-13.23-9.3398-17.223zm8.2461 20.914c-2.375-1.2031-3.8398-2.3125-3.9688-2.4141-0.19922-0.15234-0.32812-0.37109-0.35547-0.62109s0.039062-0.49609 0.1875-0.69531c0.17969-0.23047 0.45312-0.35938 0.74609-0.35938 0.20703 0 0.40625 0.066406 0.58203 0.20312 0.097656 0.066407 0.92969 0.69531 2.3086 1.4805 0.14453 0.67969 0.3125 1.4883 0.5 2.4062zm30.992-32.348c-0.42969 0.22656-0.91016 0.60547-1.4961 1.0742-2.9141 2.3242-8.9531 7.168-21.953 7.168-2.8555 0-5.2617-0.1875-7.2891-0.45312-0.1875-1.5312-0.38281-3.0664-0.58594-4.6289-1.3828-10.473-2.8164-21.293 0.60547-30.965 2.2031-6.2109 6.7344-11.59 11.559-13.699 3.2852-1.4375 6.6484-1.4375 9.9922-0.011719 7.6602 3.2852 8.293 14.805 8.75 23.211 0.074218 1.332 0.13672 2.5898 0.23047 3.7266 0.23828 2.9766 0.20312 6 0.16797 8.918-0.019531 1.8477-0.03125 3.7578 0.019531 5.6602zm-7.9023 31.672c2.3984-0.83984 3.8828-1.6602 4.0078-1.7344 0.44141-0.25 1.0391-0.085938 1.2852 0.35547 0.25391 0.44531 0.097657 1.0234-0.35156 1.2773-0.14844 0.089844-2.0312 1.1328-5.0586 2.1289 0.039063-0.70312 0.078125-1.375 0.11719-2.0273zm-0.55859 10.203c2.7305-0.91016 4.4297-1.8516 4.5664-1.9258 0.44141-0.25 1.0391-0.085937 1.2852 0.35156 0.25391 0.45312 0.097657 1.0273-0.35156 1.2812-0.15234 0.089844-2.2578 1.2695-5.6055 2.3047 0.039062-0.67969 0.074219-1.3516 0.10547-2.0117zm-0.49609 10.168c3.0156-0.94922 4.918-2 5.0586-2.082 0.44141-0.25 1.0391-0.078125 1.2852 0.35547 0.25391 0.45312 0.097656 1.0273-0.35156 1.2812-0.16406 0.097656-2.4648 1.3789-6.0898 2.4492 0.03125-0.66016 0.0625-1.3281 0.097656-2.0039zm-9.793 11.547c2.7773 0 5.3164-0.38281 7.4922-0.91406 0.011718 0.625 0.046875 1.2695 0.10156 1.918-2.2188 0.50781-4.7969 0.87891-7.5938 0.87891-2.2617 0-4.4023-0.34375-6.332-0.84766-0.027344-0.64844-0.054687-1.3203-0.097656-1.9883 1.9492 0.57031 4.1133 0.95313 6.4297 0.95313zm-6.5469-2.9531c-0.097656-1.3984-0.20312-2.8125-0.33984-4.2344 2.0938 0.56641 4.4141 0.9375 6.8867 0.9375 2.8281 0 5.4297-0.35938 7.7109-0.87109-0.066406 1.5508-0.11719 2.9844-0.16797 4.2578-2.1602 0.56641-4.7344 0.99219-7.543 0.99219-2.3594-0.003906-4.5938-0.45312-6.5469-1.082zm0.28516 7.9609c0-0.66016-0.011719-1.3438-0.023438-2.0391 1.9375 0.47266 4.0469 0.79687 6.2773 0.79687 2.875 0 5.5273-0.37109 7.8359-0.89062 0.21484 1.293 0.54297 2.6133 0.97656 3.9219-2.3828 0.71875-5.4297 1.3438-8.8125 1.3438-2.293 0-4.4609-0.42969-6.3789-1.0273 0.082031-0.67188 0.125-1.3555 0.125-2.1055zm14.062-14.066c-2.2695 0.54297-4.9102 0.9375-7.8008 0.9375-2.5625 0-4.957-0.44141-7.0781-1.0625-0.074219-0.68359-0.13672-1.3555-0.21484-2.0312 2.1523 0.69922 4.6289 1.2148 7.293 1.2148 2.9453 0 5.6289-0.44141 7.8867-1.0117-0.035156 0.66016-0.058594 1.3203-0.085937 1.9531zm-14.488 18.047c2.0039 0.60547 4.2734 1.0273 6.6875 1.0273 3.6641 0 6.9375-0.67187 9.4766-1.4453 0.24219 0.57422 0.50781 1.1445 0.80078 1.7227-2.7148 0.84766-6.2539 1.5977-10.273 1.5977-2.6172 0-5.0586-0.45312-7.2148-1.0898 0.20703-0.56641 0.37891-1.1758 0.52344-1.8125zm16.125-8.4688c-0.050781-0.67188-0.074218-1.3203-0.0625-1.9297 3.2617-0.98047 5.3359-2.1289 5.4805-2.2188 0.44141-0.25391 1.0391-0.078125 1.2852 0.35547 0.25391 0.45312 0.097657 1.0273-0.35156 1.2812-0.16406 0.089844-2.5742 1.4336-6.3516 2.5117zm-20.027-33.055c2.7031 1.2656 6.4297 2.5156 10.59 2.5156 3.4141 0 6.4727-0.59375 8.9336-1.293-0.039062 0.64453-0.078125 1.3086-0.11719 1.9922-2.4766 0.66016-5.4922 1.1797-8.8242 1.1797-3.8906 0-7.3945-0.99219-10.148-2.1406-0.14453-0.8125-0.29688-1.5703-0.43359-2.2539zm0.21094 12.164c-3.4609-1.4727-5.6719-3.1562-5.832-3.2734-0.19922-0.15234-0.32812-0.37109-0.35547-0.625-0.027344-0.24219 0.039062-0.49219 0.1875-0.6875 0.17969-0.23828 0.45312-0.36719 0.74609-0.36719 0.20703 0 0.40625 0.074219 0.58203 0.20312 0.12891 0.10547 1.7617 1.3164 4.3477 2.5391 0.10156 0.71484 0.21094 1.4609 0.32422 2.2109zm10.379 4.1172c3.0195 0 5.793-0.40625 8.1836-0.97266-0.078125 1.4375-0.14062 2.8555-0.20703 4.2461-2.2422 0.60547-4.9844 1.1016-7.9766 1.1016-2.7656 0-5.3516-0.62109-7.5352-1.4102-0.16406-1.4453-0.35547-2.8555-0.54297-4.2461 2.3945 0.75 5.125 1.2812 8.0781 1.2812zm11.215 24.234c2.1836-0.79688 3.5234-1.5312 3.6406-1.5977 0.44141-0.25391 1.0391-0.078125 1.2852 0.35547 0.25391 0.45312 0.097657 1.0273-0.35156 1.2812-0.125 0.066406-1.5078 0.83594-3.7695 1.6758-0.29688-0.5625-0.5625-1.1367-0.80469-1.7148zm1.7656 3.3555c2.2461-0.85938 3.6172-1.6211 3.7383-1.6875 1.3438-0.77344 1.8164-2.4883 1.0508-3.8398-0.49609-0.87891-1.4336-1.4219-2.4492-1.4219-0.48438 0-0.96094 0.11719-1.3789 0.35938-0.035156 0.011719-1.293 0.70703-3.3828 1.457-0.42188-1.293-0.71094-2.5781-0.90234-3.8047 4.1953-1.1562 6.8867-2.668 7.0625-2.7656 1.3438-0.77344 1.8164-2.4883 1.0508-3.8398-0.49609-0.87891-1.4336-1.4219-2.4492-1.4219-0.48438 0-0.96094 0.11719-1.3789 0.35938-0.035156 0.023438-1.7539 0.96094-4.5 1.8398 0.046876-1.2578 0.10547-2.6602 0.16797-4.1719 4.2148-1.1641 6.9297-2.6875 7.1055-2.7812 1.3438-0.77344 1.8164-2.4883 1.0508-3.8398-0.49609-0.875-1.4336-1.4219-2.4492-1.4219-0.48437 0-0.96094 0.125-1.3789 0.35938-0.035156 0.015625-1.5625 0.85938-4.0586 1.6992 0.066407-1.3555 0.12891-2.7539 0.20313-4.1641 3.9414-1.1406 6.4648-2.5469 6.6328-2.6484 1.3438-0.76953 1.8164-2.4883 1.0508-3.8398-0.49609-0.875-1.4336-1.4219-2.4492-1.4219-0.48437 0-0.96094 0.12891-1.3789 0.35938-0.035156 0.015625-1.3594 0.75-3.543 1.5234 0.074218-1.3984 0.14844-2.7891 0.22656-4.1367 3.6406-1.1055 5.9336-2.3984 6.0977-2.4961 1.3438-0.76953 1.8164-2.4844 1.0508-3.8398-0.49609-0.87109-1.4336-1.4219-2.4492-1.4219-0.48438 0-0.96094 0.12891-1.3789 0.35938-0.035156 0.023437-1.1289 0.62109-2.9648 1.3086 0.10156-1.6328 0.19141-3.1328 0.28125-4.418 0.49219-7.0508 3.2461-9.4141 7.0625-12.68 0.85156-0.72656 1.7461-1.4883 2.6602-2.3438 4.7188-4.4258 4.5-17.742 4.3867-24.895-0.015625-0.91406-0.035156-1.7227-0.035156-2.375 0-3.2969-0.59766-32.215-21.574-32.215-18.457 0-22.566 21.336-24.324 30.453-0.12891 0.70703-0.25391 1.3359-0.36719 1.8867-0.25781 1.2305-0.54297 2.4258-0.83594 3.5938 1.7031-8.1953 3.2891-18.445 3.3086-18.586 0.58594-3.8047 2.957-7.4062 2.9805-7.4414l0.15234-0.23047v-0.066406c3.0195-6.2695 8.0273-14.676 16.793-16.391 7.5195-1.4688 15.363 1.5312 20.969 8.0273 5.8633 6.7891 6.6602 24.848 6.6602 41.613 0 4.5547 0.34375 9.0547 0.63672 12.469 0.58594 6.6758 1.4883 13.914 2.8555 22.766 0.1875 1.207 0.38281 2.4102 0.59375 3.6172 0.26562 1.5586 0.54297 3.1797 0.76953 4.7695 1.2031 8.4883 0.25 17.406-0.92969 26.559-0.89063 6.9648-2.625 13.535-5.0977 19.523-7.4883-0.52344-12.164-4.0312-14.941-8.2969zm-32.082-91.516c0.11719-0.55859 0.24219-1.2031 0.37109-1.918 1.6641-8.6523 5.5664-28.93 22.477-28.93 19.152 0 19.699 27.23 19.699 30.34 0 0.66016 0.011719 1.4805 0.035156 2.4062 0.078125 5.2891 0.24219 15.301-2.0508 20.773 0.066406-3.6953-0.38281-5.1367-0.80859-5.7422-0.054688-2-0.046875-4.0195-0.023438-5.9844 0.035157-2.9648 0.066407-6.0273-0.17578-9.082-0.089843-1.125-0.15234-2.3633-0.22656-3.6797-0.48438-8.9023-1.1445-21.094-9.8828-24.836-3.8398-1.6406-7.6992-1.6367-11.477 0.015625-6.4062 2.8047-10.703 9.4766-12.582 14.789-3.5781 10.098-2.1172 21.156-0.69531 31.84 0.17969 1.3867 0.35547 2.7422 0.51953 4.1055-1.9414-0.33203-3.4492-0.71875-4.6055-1.0117-1.7852-0.45313-2.8555-0.72266-3.7266-0.37891-0.46094 0.1875-0.80859 0.54688-0.99219 1.0391-0.15234 0.40625-0.17969 0.90234-0.12891 1.4297-1.7109-2.1445-1.4062-3.5898-0.73828-6.707 0.39062-1.8164 1.0625-4.0352 1.8281-6.5938 1.0742-3.5312 2.2812-7.5195 3.1836-11.875zm-2.7891 29.285c3.9062 3.4219 6.6953 8.2227 8.4727 14.621-0.30469-0.20312-0.49219-0.34375-0.50391-0.34375-1.1914-0.92578-3.0195-0.69531-3.9453 0.50391-0.46094 0.59375-0.66016 1.332-0.56641 2.0781 0.089844 0.75 0.47266 1.4102 1.0664 1.8672 0.15625 0.125 2.2461 1.7109 5.5469 3.1992 0.23047 1.2461 0.46875 2.6133 0.71875 4.082-1.75-0.92578-2.8047-1.7109-2.8281-1.7266-1.1914-0.92578-3.0195-0.6875-3.9453 0.50391-0.46094 0.59375-0.66016 1.332-0.56641 2.082 0.089844 0.74609 0.47266 1.4102 1.0664 1.8672 0.1875 0.14844 2.9844 2.2695 7.2891 3.9297 0.19141 1.3438 0.37109 2.7188 0.55469 4.1211-2.6758-1.2148-4.3633-2.4727-4.3984-2.4961-1.1914-0.92578-3.0195-0.6875-3.9453 0.50391-0.46094 0.59375-0.66016 1.332-0.56641 2.082 0.089844 0.74609 0.47266 1.4102 1.0664 1.8633 0.20312 0.16406 3.5273 2.6914 8.5352 4.3789 0.12891 1.3828 0.25391 2.7617 0.35156 4.1133-3.2695-1.3203-5.4062-2.918-5.4414-2.9414-1.1914-0.92578-3.0195-0.68359-3.9453 0.50781-0.46094 0.59375-0.66016 1.332-0.56641 2.082 0.089844 0.73828 0.47266 1.3984 1.0664 1.8633 0.20703 0.16406 3.8164 2.9141 9.1875 4.6055 0.027344 0.85938 0.039063 1.7227 0.039063 2.5469 0 0.50781-0.035157 0.99219-0.066407 1.457-3.4258-1.3438-5.6914-3.0312-5.7227-3.0547-1.1914-0.92578-3.0195-0.68359-3.9453 0.50781-0.46094 0.59375-0.66016 1.332-0.56641 2.082 0.089843 0.73828 0.47266 1.3984 1.0664 1.8633 0.1875 0.14062 3.0977 2.3594 7.5469 4.0352-2.5508 4.3242-7.3281 5.3242-9.4609 5.5547-1.418-9.4023-1.3984-25.227-1.3789-28.652h0.003906v-0.68359c0-15.867-1.9297-35.012-4.1211-40.98-0.19141-0.53125-0.35156-1.0508-0.48438-1.5625 0.75 1.043 1.8281 2.1719 3.3867 3.5391z"/>
  <path d="m305.23 263.86v-12.902h1.0547v-7.9766h-1.0547v-11.492h1.0547v-18.883h-17.125v18.883h1.0625v11.492h-1.0625v7.9766h1.0625v12.902c-4.7969 2.7109-7.7383 7.7148-7.7383 13.254s2.9414 10.539 7.7383 13.254v64.551c0 2.3242 1.8984 4.2227 4.2227 4.2227h6.5703c2.3242 0 4.2227-1.8984 4.2227-4.2227v-64.555c3.6797-2.0938 6.332-5.6289 7.3086-9.7383h2.2734v-6.9141h-2.2461c-0.96094-4.1484-3.6172-7.7344-7.3438-9.8516zm-4.2227 91.992h-6.5703c-0.51953 0-0.9375-0.41797-0.9375-0.9375v-64.621c0.011718 0.003907 0.015625 0.003907 0.023437 0.003907 0.14062 0.046875 0.28906 0.078125 0.42188 0.11719 0.25781 0.074219 0.52344 0.14062 0.78906 0.19922 0.15625 0.039063 0.32812 0.066406 0.48438 0.10156 0.26562 0.046874 0.51953 0.089843 0.78516 0.11719 0.15625 0.015625 0.32031 0.039063 0.47266 0.054687 0.35938 0.035157 0.72656 0.050782 1.0898 0.054688 0.054688 0 0.10156 0.003906 0.15234 0.003906 0.046875 0 0.10156-0.003906 0.14844-0.003906 0.35938-0.003906 0.72656-0.023438 1.0898-0.054688 0.15625-0.015624 0.31641-0.039062 0.47266-0.054687 0.25781-0.035156 0.52344-0.078125 0.77734-0.11719 0.16406-0.035157 0.33203-0.0625 0.49219-0.10156 0.26563-0.054687 0.53125-0.125 0.78906-0.19922 0.14062-0.046875 0.28906-0.078125 0.41797-0.11719 0.011718 0 0.023437 0 0.035156-0.003907v64.621c0.003906 0.51953-0.41797 0.9375-0.93359 0.9375zm-8.043-67.77c-4.2344-1.8398-7.2031-6.0625-7.2031-10.969s2.9766-9.1289 7.2148-10.969c3.0195-1.3086 6.4727-1.3086 9.5 0 4.2383 1.8398 7.2148 6.0625 7.2148 10.969s-2.9766 9.1289-7.207 10.969c-3.0273 1.3203-6.4883 1.3203-9.5195 0zm-0.51953-64.32v-4.9375h4.3984v4.1094h-2.4062c-0.77734-0.007813-1.4844 0.3125-1.9922 0.82812zm10.555-6.8125h-10.555v-1.0625h10.555zm-9.5 32.602h8.4453v14.387c-0.011718-0.003906-0.023437-0.011719-0.035156-0.011719-0.12891-0.046875-0.26953-0.078125-0.40625-0.11328-0.26562-0.078125-0.54297-0.15234-0.8125-0.20703-0.14844-0.035156-0.30078-0.066406-0.44531-0.089843-0.28906-0.054688-0.57422-0.10156-0.85938-0.12891-0.12891-0.015624-0.26562-0.035156-0.39453-0.046874-0.41797-0.046876-0.83984-0.066407-1.2695-0.066407s-0.85156 0.023438-1.2812 0.066407c-0.12891 0.011718-0.26562 0.027343-0.39453 0.046874-0.28906 0.035157-0.57422 0.078126-0.85156 0.12891-0.14844 0.023437-0.30078 0.054687-0.44531 0.089843-0.27734 0.054688-0.54297 0.12891-0.82031 0.20703-0.12891 0.035156-0.26953 0.066406-0.40234 0.11328-0.011719 0-0.015626 0.003906-0.027344 0.011719zm0-1.8789v-1.4062h8.4453v1.4062zm0-3.2812v-14.309h8.4453v14.309zm0-16.188v-2.4609c0-0.51953 0.41797-0.94141 0.9375-0.94141h6.5703c0.51172 0 0.9375 0.42188 0.9375 0.94141v2.4609zm7.5078-5.2773h-2.4102v-4.1094h4.3984v4.9375c-0.50781-0.50781-1.2148-0.82812-1.9883-0.82812z"/>
  <path d="m589.68 331.41c-1.875-6.3164-3.2383-11.238-3.3516-11.934-0.035157-1.2422-0.66016-8.1172-0.9375-11.082l-0.10156-1.0273-3.5039-2.6367 2.6602-22.742 0.035156-0.25781-0.035156-0.25781c-0.14062-1.3164-3.4609-32.418-6.3164-43.199-2.8125-10.641-16.656-51.672-20.684-57.367-5.9766-8.4727-31.473-43.027-46.922-57.285-15.984-14.75-40.781-33.094-55.266-38.027-11.012-3.7539-24.949-7.9492-30.086-9.4766-1.2812-5.9609-2.9023-9.2305-2.9766-9.3711l-0.34375-0.6875-0.68359-0.35547c-5.8984-3.0078-13.867-4.543-23.691-4.543-9.1953 0-16.703 1.3555-17.527 1.5195l-1.7969 0.33984-0.11328 1.8164c-0.42969 6.7773-5.0586 11.012-7.0547 12.531-2.5781-0.30859-4.2891-0.49219-5.6211-0.49219-1.3789 0-3.0781 0.1875-3.9023 1.6406-1.2031 2.1016-1.3672 7.7461-1.2812 12.328-0.84766 1.1406-1.7656 3.625-1.5312 10.5 0.011719 0.30078 0.023438 0.59375 0.046875 0.87891-5.9609 1.8789-12.355 4.9062-11.582 9.1484 0.20312 1.1289 0.65625 2.293 1.1406 3.5352 1.1562 2.9688 2.4727 6.3398 0.63281 10.008l-9.9336 19.863-8.1406 335.81-0.046875 1.7344 1.6406 0.55469c0.41797 0.12891 4.2383 1.3438 10.34 1.3438 3.6406 0 7.3672-0.44141 11.098-1.3086 0.49219 2.0703 0.80859 3.3086 0.80859 3.3203l0.44141 1.7344 11.961 0.27734-4.8086 14.762 20.184 2.1719 6.7227 1.918 0.35937-0.011718c0.48438-0.011719 48.949-1.5508 84.438-24.176 0.12891-0.089844 13.418-8.9648 30.699-14.727l1.7969-0.59375-5.8086-55.176c0.1875-3.9336 3.1836-66.43 4.9961-92.035 1.2344-17.531 4.418-40.738 6.418-54.375l0.12891 0.75-3.0781 21.223-0.64844 27.262 0.011719 0.24219c0.023437 0.15625 2.0508 16.008 9.6797 29.348l0.56641 0.99219 1.1133 0.16406c0.56641 0.089844 5.6445 0.82812 12.262 0.82812 7.9805 0 14.688-1.0625 19.93-3.1602 6.7109-2.6914 9.4961-3.0469 11.312-3.0469 0.625 0 1.168 0.046875 1.7539 0.097656 1.1445 0.097656 2.5 0.15234 3.8906-0.027344 4.7188-0.63281 16.273-2.8164 16.379-2.8398l0.91406-0.16406 3.7383-5.1367zm-68.902 11.375c-6.0391-10.77-8.3242-23.051-8.8828-26.66 2.9414-0.027344 11.188-0.16797 16.867-0.94141 2.1055-0.29297 4.6172-0.80078 7.543-1.3828 6.582-1.332 14.781-2.9844 22.984-2.9844 5.0586 0 8.4883 0.22656 11 0.39062 3.4375 0.22656 5.1602 0.33984 6.6602-0.51172 1.3203-0.75781 3.7578-1.0273 5.25-1.1016 0.37109 3.9805 0.85938 9.3711 0.85938 9.9844 0 0.92969 2.2344 8.6016 3.3398 12.332l-2.0039 2.7656c-2.0039 0.37109-11.695 2.1836-15.844 2.7305-1.2695 0.16797-2.207 0.089844-3.1953 0.011719-2.5586-0.20703-5.4688-0.45312-14.551 3.1797-11.062 4.418-27.152 2.5703-30.027 2.1875zm-8.4141-54.414 3.1445-21.668-5.3359-32.355-0.91406 0.11719 0.40625-0.8125c-0.16406-0.085938-16.309-8.5234-13.879-39.75 2.0586-26.48 4.543-45.582 5.875-55.848 0.28906-2.2188 0.53125-4.0312 0.69531-5.4141 0.71875-5.9609 4.9961-6.3789 6.1875-6.3828 15.27 14.207 40.32 48.172 46.223 56.543 3.5625 5.0508 17.121 44.75 20.184 56.309 2.6914 10.148 6 40.578 6.2188 42.605l-2.8672 24.52 2.1602 1.6133c-1.4688 0.16797-3.2305 0.51172-4.4414 1.207-1.0156 0.57422-2.4492 0.48047-5.6094 0.27734-2.5352-0.16797-6.0039-0.39453-11.125-0.39453-8.3867 0-16.691 1.6758-23.363 3.0195-2.8789 0.58594-5.3672 1.0781-7.418 1.3672-5.5664 0.75781-13.938 0.89062-16.734 0.92188zm-15 124.04-0.011719 0.074219 5.5664 52.801c-17.398 5.9219-30.66 14.793-30.77 14.875-32.234 20.539-75.508 23.297-81.914 23.594l-2.3477-13.176 1.2461-33.703 1.2578-307.07c0.33203-0.039063 0.66016-0.066407 0.9375-0.066407 2.7656 0 8.8242 5.2344 10.93 7.2422l0.82422 0.79688 0.61719-0.96484c17.895-28.137 21.641-50.91 21.641-65.047 0-4.8359-0.40625-9.0078-0.99219-12.465 5.1016 1.5195 18.938 5.6797 29.855 9.4023 13.602 4.6328 36.809 21.664 52.559 35.922-2.3047 0.53125-5.5977 2.2539-6.2617 7.8008-0.16406 1.3828-0.40625 3.1836-0.69531 5.3945-1.332 10.277-3.8164 29.414-5.875 55.945-2.3242 29.906 11.652 39.676 14.445 41.312l2.1172 19.406c-0.38281 2.4727-6.3164 40.066-8.1172 65.641-1.8711 26.293-4.9922 91.633-5.0117 92.285zm-145.54-286.02c2.4844-4.9805 0.75781-9.4258-0.51172-12.68-0.44141-1.1289-0.82422-2.1055-0.97266-2.9258-0.27734-1.5195 4.957-4.1133 10.16-5.6836 0.50781 2.2695 1.3672 3.6445 2.207 5 1.2148 1.9492 2.3477 3.7812 2.3477 8.6719 0 9.2891-9.6914 14.121-9.793 14.168l-0.51953 0.25391-2.5039 144.16 0.625 145.67c-0.27734 1.5859-3.4141 20.141-2.5 32.051 0.58594 7.6328 2.6602 17.77 4.1211 24.301-10.273 2.7031-18.113 1.1445-20.371 0.57422l8.1172-334.35zm19.973-45.59c0.011719-0.003906 0.035157-0.027344 0.046876-0.035156 7.7852 0.92969 20.52 2.4062 32.766-0.26953 0.37109 2.9648 0.76172 6.2148 1.125 9.5547-12.27 3.9844-37.453 1.5078-42.254 0.98047-0.078125-3.7305 0.078125-9.2852 0.78516-10.785 0.79688-0.30078 4.1328 0.10547 7.3789 0.49219 0.046875 0.003906 0.10156 0.011719 0.14062 0.015625zm30.922 74.051c-2.2305-2.0312-8.0039-6.9805-11.391-6.9805-2.2578 0-6 1-9.3711 2.9922 1.4453-1.1523 3.1562-2.2109 5.0312-3.375 1.875-1.168 3.8164-2.3711 5.8438-3.8711 6.7578-5.0117 12.113-11.652 15.93-19.75 2.4141-5.1367-1.4805-37.18-2.3125-43.781l4.3359-1.0391-33.117-3.8789c1.6992-2.3711 3.207-5.4883 3.6055-9.3945 4.1055-0.66797 25.215-3.6797 38.125 2.7031 1.4531 3.3281 14.641 36.434-16.68 86.375zm-46.289-10.266 0.16406-9.5469c2.3555 0.64844 7.9141 1.9492 14.762 1.9492 11.531 0 26.684-3.6797 36.328-20.266 0 3.1289-0.17578 5.4023-0.61719 6.3438-3.1094 6.6055-7.2891 12.188-12.434 16.676l-0.078125-0.089843c-13.367 11.711-34.348 6.0781-38.125 4.9336zm42.629-65.016c-9.25 1.207-18.23 0.35547-25.027-0.42969 0.68359-0.58594 1.4688-1.3281 2.2695-2.2344zm-13.891 14.613-2.3047 17.02-14.242-1.2422 3.332-16.277c3.8203 0.26172 8.4492 0.48828 13.215 0.5zm-15.105-0.64453-3.7148 18.105 18.137 1.5742 2.5781-19.043c6.8477-0.078125 13.777-0.63672 18.875-2.2109 0.78516 7.5195 1.4453 15.324 1.6641 21.297l-0.14062-0.074218c-6.6367 13.191-17.289 20.523-31.648 21.793-7.7383 0.68359-14.508-0.66797-17.77-1.5 3.1328-2.0586 8.8945-6.9102 8.8945-14.711 0-5.4258-1.332-7.582-2.6367-9.6641-1.1328-1.8398-2.2305-3.5859-2.3711-7.8789-0.19922-6.2305 0.59375-7.9688 0.85938-8.375 0.95703 0.11328 3.6289 0.40625 7.2734 0.6875zm-17.824 361.39c-0.92188-11.938 2.4609-31.473 2.4883-31.672l0.011719-0.078125-0.62109-145.81 2.2734-130.82c2.5273 0.75 8.7656 2.3555 16.109 2.3555 3.4727 0 7.1953-0.36719 10.883-1.3555-3.7578 2.4727-6.8477 5.1523-7.9023 9.9219v0.003906 0.003906c-0.25391 1.1523-0.40625 2.4141-0.40625 3.8398 0 10.504-2.1719 190.53-2.1953 192.32l-3.9922 131.36-11.223-0.26562c-0.84766-3.4609-4.6094-19.141-5.4258-29.797zm18.445 32.762 4.082-134.02c0.023438-1.8164 2.1836-181.85 2.1836-192.37 0-1.1797 0.11328-2.2305 0.30859-3.1875 2.1055-4.2227 7.4102-6.9414 11.254-7.9414l-1.2461 306.66-1.2461 33.879 2.2461 12.699-5.1133-1.4688-16.527-1.7852z"/>
  <use x="70" y="644.667969" xlink:href="#u"/>
  <use x="90.710938" y="644.667969" xlink:href="#c"/>
  <use x="104.632812" y="644.667969" xlink:href="#b"/>
  <use x="123.773438" y="644.667969" xlink:href="#a"/>
  <use x="142.816406" y="644.667969" xlink:href="#d"/>
  <use x="156.308594" y="644.667969" xlink:href="#b"/>
  <use x="175.449219" y="644.667969" xlink:href="#j"/>
  <use x="205.476562" y="644.667969" xlink:href="#i"/>
  <use x="225.679688" y="644.667969" xlink:href="#f"/>
  <use x="253.902344" y="644.667969" xlink:href="#h"/>
  <use x="277.332031" y="644.667969" xlink:href="#a"/>
  <use x="296.375" y="644.667969" xlink:href="#f"/>
  <use x="314.773438" y="644.667969" xlink:href="#a"/>
  <use x="333.820312" y="644.667969" xlink:href="#g"/>
  <use x="363.738281" y="644.667969" xlink:href="#t"/>
  <use x="384.171875" y="644.667969" xlink:href="#a"/>
  <use x="403.21875" y="644.667969" xlink:href="#c"/>
  <use x="417.136719" y="644.667969" xlink:href="#s"/>
  <use x="70" y="672.890625" xlink:href="#r"/>
  <use x="82.277344" y="672.890625" xlink:href="#c"/>
  <use x="96.195312" y="672.890625" xlink:href="#e"/>
  <use x="115.585938" y="672.890625" xlink:href="#q"/>
  <use x="154.820312" y="672.890625" xlink:href="#d"/>
  <use x="168.3125" y="672.890625" xlink:href="#p"/>
  <use x="188.402344" y="672.890625" xlink:href="#b"/>
  <use x="217.371094" y="672.890625" xlink:href="#o"/>
  <use x="240.992188" y="672.890625" xlink:href="#e"/>
  <use x="260.382812" y="672.890625" xlink:href="#n"/>
  <use x="280.472656" y="672.890625" xlink:href="#g"/>
  <use x="310.390625" y="672.890625" xlink:href="#m"/>
  <use x="331.078125" y="672.890625" xlink:href="#c"/>
  <use x="344.996094" y="672.890625" xlink:href="#e"/>
  <use x="364.382812" y="672.890625" xlink:href="#l"/>
  <use x="374.058594" y="672.890625" xlink:href="#b"/>
  <use x="393.199219" y="672.890625" xlink:href="#k"/>
  <use x="409.929688" y="672.890625" xlink:href="#d"/>
 </g>
</svg>
