<?xml version="1.0" encoding="UTF-8"?>
<svg width="700pt" height="700pt" version="1.1" viewBox="0 0 700 700" xmlns="http://www.w3.org/2000/svg" xmlns:xlink="http://www.w3.org/1999/xlink">
 <defs>
  <symbol id="h" overflow="visible">
   <path d="m14.656-0.875c-0.76172 0.39844-1.5547 0.69531-2.375 0.89062-0.8125 0.19531-1.6641 0.29688-2.5469 0.29688-2.6562 0-4.7617-0.73828-6.3125-2.2188-1.5547-1.4883-2.3281-3.5039-2.3281-6.0469 0-2.5508 0.77344-4.5664 2.3281-6.0469 1.5508-1.4883 3.6562-2.2344 6.3125-2.2344 0.88281 0 1.7344 0.10156 2.5469 0.29688 0.82031 0.19922 1.6133 0.49609 2.375 0.89062v3.2969c-0.76172-0.51953-1.5117-0.89844-2.25-1.1406-0.74219-0.23828-1.5234-0.35938-2.3438-0.35938-1.4688 0-2.625 0.46875-3.4688 1.4062-0.83594 0.9375-1.25 2.2344-1.25 3.8906 0 1.6484 0.41406 2.9375 1.25 3.875 0.84375 0.9375 2 1.4062 3.4688 1.4062 0.82031 0 1.6016-0.11719 2.3438-0.35938 0.73828-0.23828 1.4883-0.61719 2.25-1.1406z"/>
  </symbol>
  <symbol id="c" overflow="visible">
   <path d="m10.719-8.7031c-0.33594-0.15625-0.66797-0.26953-1-0.34375-0.32422-0.082031-0.65625-0.125-1-0.125-0.98047 0-1.7344 0.32031-2.2656 0.95312-0.53125 0.625-0.79688 1.5273-0.79688 2.7031v5.5156h-3.8125v-11.969h3.8125v1.9688c0.48828-0.78125 1.0508-1.3477 1.6875-1.7031 0.64453-0.36328 1.4102-0.54688 2.2969-0.54688 0.13281 0 0.27344 0.007812 0.42188 0.015625 0.14453 0.011719 0.36328 0.03125 0.65625 0.0625z"/>
  </symbol>
  <symbol id="a" overflow="visible">
   <path d="m13.781-6.0156v1.0938h-8.9375c0.09375 0.89844 0.41406 1.5703 0.96875 2.0156 0.55078 0.44922 1.3281 0.67188 2.3281 0.67188 0.80078 0 1.625-0.11719 2.4688-0.35938 0.84375-0.23828 1.7109-0.59766 2.6094-1.0781v2.9531c-0.90625 0.33594-1.8125 0.58984-2.7188 0.76562s-1.8125 0.26562-2.7188 0.26562c-2.1562 0-3.8398-0.54688-5.0469-1.6406-1.1992-1.1016-1.7969-2.6484-1.7969-4.6406 0-1.9453 0.58594-3.4766 1.7656-4.5938 1.1758-1.125 2.8008-1.6875 4.875-1.6875 1.875 0 3.375 0.57031 4.5 1.7031 1.1328 1.125 1.7031 2.6367 1.7031 4.5312zm-3.9375-1.2656c0-0.72656-0.21484-1.3125-0.64062-1.75-0.41797-0.44531-0.96875-0.67188-1.6562-0.67188-0.74219 0-1.3438 0.21094-1.8125 0.625-0.46094 0.41797-0.74609 1.0156-0.85938 1.7969z"/>
  </symbol>
  <symbol id="m" overflow="visible">
   <path d="m7.2031-5.3906c-0.80469 0-1.4062 0.13672-1.8125 0.40625-0.39844 0.27344-0.59375 0.67188-0.59375 1.2031 0 0.48047 0.16016 0.85938 0.48438 1.1406 0.32031 0.27344 0.77344 0.40625 1.3594 0.40625 0.71875 0 1.3203-0.25391 1.8125-0.76562 0.48828-0.51953 0.73438-1.1719 0.73438-1.9531v-0.4375zm5.8438-1.4375v6.8281h-3.8594v-1.7656c-0.51172 0.71875-1.0898 1.2461-1.7344 1.5781-0.63672 0.33203-1.418 0.5-2.3438 0.5-1.2422 0-2.2461-0.35938-3.0156-1.0781-0.77344-0.72656-1.1562-1.6719-1.1562-2.8281 0-1.3945 0.47656-2.4219 1.4375-3.0781 0.96875-0.65625 2.4883-0.98438 4.5625-0.98438h2.25v-0.29688c0-0.60156-0.24219-1.0469-0.71875-1.3281-0.48047-0.28125-1.2266-0.42188-2.2344-0.42188-0.8125 0-1.5742 0.085937-2.2812 0.25-0.71094 0.15625-1.3672 0.40234-1.9688 0.73438v-2.9219c0.82031-0.19531 1.6445-0.34766 2.4688-0.45312 0.82031-0.10156 1.6484-0.15625 2.4844-0.15625 2.1562 0 3.7109 0.42969 4.6719 1.2812 0.95703 0.84375 1.4375 2.2266 1.4375 4.1406z"/>
  </symbol>
  <symbol id="b" overflow="visible">
   <path d="m6.0156-15.359v3.3906h3.9375v2.7344h-3.9375v5.0781c0 0.55469 0.10938 0.92969 0.32812 1.125 0.21875 0.19922 0.65625 0.29688 1.3125 0.29688h1.9688v2.7344h-3.2812c-1.5117 0-2.5859-0.3125-3.2188-0.9375-0.625-0.63281-0.9375-1.707-0.9375-3.2188v-5.0781h-1.9062v-2.7344h1.9062v-3.3906z"/>
  </symbol>
  <symbol id="l" overflow="visible">
   <path d="m9.9688-10.219v-6.4062h3.8594v16.625h-3.8594v-1.7344c-0.52344 0.71094-1.1016 1.2305-1.7344 1.5625-0.63672 0.32031-1.3711 0.48438-2.2031 0.48438-1.4688 0-2.6797-0.58203-3.625-1.75-0.94922-1.1758-1.4219-2.6875-1.4219-4.5312s0.47266-3.3477 1.4219-4.5156c0.94531-1.1758 2.1562-1.7656 3.625-1.7656 0.83203 0 1.5664 0.16797 2.2031 0.5 0.63281 0.32422 1.2109 0.83594 1.7344 1.5312zm-2.5156 7.75c0.82031 0 1.4453-0.29688 1.875-0.89062 0.42578-0.60156 0.64062-1.4727 0.64062-2.6094 0-1.1445-0.21484-2.0156-0.64062-2.6094-0.42969-0.59375-1.0547-0.89062-1.875-0.89062-0.8125 0-1.4336 0.29688-1.8594 0.89062-0.42969 0.59375-0.64062 1.4648-0.64062 2.6094 0 1.1367 0.21094 2.0078 0.64062 2.6094 0.42578 0.59375 1.0469 0.89062 1.8594 0.89062z"/>
  </symbol>
  <symbol id="k" overflow="visible">
   <path d="m8.2031-2.4688c0.82031 0 1.4453-0.29688 1.875-0.89062 0.42578-0.60156 0.64062-1.4727 0.64062-2.6094 0-1.1445-0.21484-2.0156-0.64062-2.6094-0.42969-0.59375-1.0547-0.89062-1.875-0.89062-0.82422 0-1.4531 0.30469-1.8906 0.90625-0.4375 0.59375-0.65625 1.4609-0.65625 2.5938 0 1.1367 0.21875 2.0078 0.65625 2.6094 0.4375 0.59375 1.0664 0.89062 1.8906 0.89062zm-2.5469-7.75c0.53125-0.69531 1.1133-1.207 1.75-1.5312 0.64453-0.33203 1.3828-0.5 2.2188-0.5 1.4688 0 2.6758 0.58984 3.625 1.7656 0.94531 1.168 1.4219 2.6719 1.4219 4.5156s-0.47656 3.3555-1.4219 4.5312c-0.94922 1.168-2.1562 1.75-3.625 1.75-0.83594 0-1.5742-0.16797-2.2188-0.5-0.63672-0.33203-1.2188-0.84766-1.75-1.5469v1.7344h-3.8125v-16.625h3.8125z"/>
  </symbol>
  <symbol id="j" overflow="visible">
   <path d="m0.26562-11.969h3.8281l3.2188 8.125 2.7344-8.125h3.8125l-5.0312 13.094c-0.5 1.332-1.0898 2.2656-1.7656 2.7969-0.66797 0.53125-1.5547 0.79688-2.6562 0.79688h-2.2188v-2.5h1.2031c0.64453 0 1.1133-0.10547 1.4062-0.3125 0.30078-0.21094 0.53125-0.57812 0.6875-1.1094l0.10938-0.34375z"/>
  </symbol>
  <symbol id="i" overflow="visible">
   <path d="m0.65625-15.953h3.9375l2.75 11.594 2.7344-11.594h3.9688l2.7344 11.594 2.75-11.594h3.9062l-3.75 15.953h-4.75l-2.8906-12.125-2.8594 12.125h-4.75z"/>
  </symbol>
  <symbol id="g" overflow="visible">
   <path d="m2.0156-15.953h11.094v3.1094h-6.9844v2.9688h6.5625v3.1094h-6.5625v3.6562h7.2188v3.1094h-11.328z"/>
  </symbol>
  <symbol id="z" overflow="visible">
   <path d="m8.3906-9.7656c0.65625 0 1.1484-0.14062 1.4844-0.42188 0.33203-0.28906 0.5-0.71094 0.5-1.2656 0-0.55078-0.16797-0.97266-0.5-1.2656-0.33594-0.28906-0.82812-0.4375-1.4844-0.4375h-2.2656v3.3906zm0.14062 6.9688c0.82031 0 1.4414-0.17188 1.8594-0.51562 0.41406-0.35156 0.625-0.88281 0.625-1.5938 0-0.6875-0.21094-1.2031-0.625-1.5469-0.40625-0.34375-1.0273-0.51562-1.8594-0.51562h-2.4062v4.1719zm3.8281-5.7344c0.88281 0.25 1.5664 0.72656 2.0469 1.4219 0.48828 0.6875 0.73438 1.5312 0.73438 2.5312 0 1.543-0.52344 2.6953-1.5625 3.4531-1.043 0.75-2.625 1.125-4.75 1.125h-6.8125v-15.953h6.1719c2.207 0 3.8047 0.33984 4.7969 1.0156 1 0.66797 1.5 1.7344 1.5 3.2031 0 0.78125-0.18359 1.4492-0.54688 2-0.36719 0.54297-0.89062 0.94531-1.5781 1.2031z"/>
  </symbol>
  <symbol id="y" overflow="visible">
   <path d="m0.10938-15.953h14.688v3.1094h-5.2812v12.844h-4.1094v-12.844h-5.2969z"/>
  </symbol>
  <symbol id="x" overflow="visible">
   <path d="m2.0156-15.953h4.1094v6.0781h6.0625v-6.0781h4.1094v15.953h-4.1094v-6.7656h-6.0625v6.7656h-4.1094z"/>
  </symbol>
  <symbol id="w" overflow="visible">
   <path d="m9.2969-13.25c-1.2617 0-2.2344 0.46484-2.9219 1.3906-0.6875 0.91797-1.0312 2.2188-1.0312 3.9062 0 1.668 0.34375 2.9648 1.0312 3.8906 0.6875 0.92969 1.6602 1.3906 2.9219 1.3906 1.2578 0 2.2344-0.46094 2.9219-1.3906 0.6875-0.92578 1.0312-2.2227 1.0312-3.8906 0-1.6875-0.34375-2.9883-1.0312-3.9062-0.6875-0.92578-1.6641-1.3906-2.9219-1.3906zm0-2.9844c2.5625 0 4.5664 0.73438 6.0156 2.2031 1.457 1.4688 2.1875 3.4961 2.1875 6.0781 0 2.5742-0.73047 4.5938-2.1875 6.0625-1.4492 1.4688-3.4531 2.2031-6.0156 2.2031s-4.5742-0.73438-6.0312-2.2031c-1.4492-1.4688-2.1719-3.4883-2.1719-6.0625 0-2.582 0.72266-4.6094 2.1719-6.0781 1.457-1.4688 3.4688-2.2031 6.0312-2.2031z"/>
  </symbol>
  <symbol id="e" overflow="visible">
   <path d="m2.0156-15.953h6.8125c2.0312 0 3.5859 0.45312 4.6719 1.3594 1.0938 0.89844 1.6406 2.1797 1.6406 3.8438 0 1.6797-0.54688 2.9688-1.6406 3.875-1.0859 0.89844-2.6406 1.3438-4.6719 1.3438h-2.7031v5.5312h-4.1094zm4.1094 2.9844v4.4531h2.2656c0.80078 0 1.4141-0.19141 1.8438-0.57812 0.4375-0.38281 0.65625-0.9375 0.65625-1.6562 0-0.70703-0.21875-1.2539-0.65625-1.6406-0.42969-0.38281-1.043-0.57812-1.8438-0.57812z"/>
  </symbol>
  <symbol id="v" overflow="visible">
   <path d="m13.109-15.438v3.375c-0.875-0.39453-1.7305-0.69141-2.5625-0.89062-0.83594-0.19531-1.6211-0.29688-2.3594-0.29688-0.99219 0-1.7188 0.13672-2.1875 0.40625-0.46875 0.27344-0.70312 0.6875-0.70312 1.25 0 0.42969 0.15625 0.76172 0.46875 1 0.32031 0.24219 0.89844 0.44922 1.7344 0.625l1.75 0.34375c1.7695 0.35547 3.0312 0.89844 3.7812 1.625 0.75 0.73047 1.125 1.7617 1.125 3.0938 0 1.7617-0.52734 3.0742-1.5781 3.9375-1.043 0.85547-2.6328 1.2812-4.7656 1.2812-1.0117 0-2.0273-0.10156-3.0469-0.29688-1.0234-0.1875-2.043-0.46875-3.0625-0.84375v-3.4688c1.0195 0.53125 2.0039 0.9375 2.9531 1.2188 0.95703 0.27344 1.875 0.40625 2.75 0.40625 0.90625 0 1.5938-0.14453 2.0625-0.4375 0.47656-0.30078 0.71875-0.73438 0.71875-1.2969 0-0.48828-0.16406-0.86719-0.48438-1.1406-0.32422-0.26953-0.96875-0.51562-1.9375-0.73438l-1.5938-0.35938c-1.5938-0.33203-2.7617-0.875-3.5-1.625-0.74219-0.75-1.1094-1.7578-1.1094-3.0312 0-1.582 0.50781-2.8008 1.5312-3.6562 1.0312-0.85156 2.5078-1.2812 4.4375-1.2812 0.875 0 1.7734 0.070313 2.7031 0.20312 0.92578 0.125 1.8828 0.32422 2.875 0.59375z"/>
  </symbol>
  <symbol id="f" overflow="visible">
   <path d="m2.0156-15.953h4.1094v12.844h7.2188v3.1094h-11.328z"/>
  </symbol>
  <symbol id="u" overflow="visible">
   <path d="m9.7031-16.625v2.5156h-2.1094c-0.54297 0-0.92188 0.10156-1.1406 0.29688-0.21094 0.19922-0.3125 0.53906-0.3125 1.0156v0.82812h3.2656v2.7344h-3.2656v9.2344h-3.8281v-9.2344h-1.8906v-2.7344h1.8906v-0.82812c0-1.3008 0.36328-2.2656 1.0938-2.8906 0.72656-0.625 1.8516-0.9375 3.375-0.9375z"/>
  </symbol>
  <symbol id="d" overflow="visible">
   <path d="m7.5312-9.5156c-0.84375 0-1.4922 0.30859-1.9375 0.92188-0.44922 0.60547-0.67188 1.4805-0.67188 2.625 0 1.1484 0.22266 2.0273 0.67188 2.6406 0.44531 0.60547 1.0938 0.90625 1.9375 0.90625 0.83203 0 1.4688-0.30078 1.9062-0.90625 0.44531-0.61328 0.67188-1.4922 0.67188-2.6406 0-1.1445-0.22656-2.0195-0.67188-2.625-0.4375-0.61328-1.0742-0.92188-1.9062-0.92188zm0-2.7344c2.0508 0 3.6562 0.55859 4.8125 1.6719 1.1641 1.1055 1.75 2.6406 1.75 4.6094s-0.58594 3.5117-1.75 4.625c-1.1562 1.1055-2.7617 1.6562-4.8125 1.6562-2.0625 0-3.6797-0.55078-4.8438-1.6562-1.168-1.1133-1.75-2.6562-1.75-4.625s0.58203-3.5039 1.75-4.6094c1.1641-1.1133 2.7812-1.6719 4.8438-1.6719z"/>
  </symbol>
  <symbol id="t" overflow="visible">
   <path d="m12.922-9.9688c0.48828-0.75 1.0625-1.3164 1.7188-1.7031 0.66406-0.38281 1.3984-0.57812 2.2031-0.57812 1.375 0 2.4219 0.42969 3.1406 1.2812 0.71875 0.84375 1.0781 2.0742 1.0781 3.6875v7.2812h-3.8438v-6.2344c0.007812-0.09375 0.015625-0.1875 0.015625-0.28125v-0.4375c0-0.84375-0.125-1.457-0.375-1.8438-0.25-0.38281-0.65234-0.57812-1.2031-0.57812-0.73047 0-1.293 0.30469-1.6875 0.90625-0.38672 0.59375-0.58984 1.4609-0.60938 2.5938v5.875h-3.8438v-6.2344c0-1.3203-0.11719-2.1758-0.34375-2.5625-0.23047-0.38281-0.63672-0.57812-1.2188-0.57812-0.73047 0-1.2969 0.30469-1.7031 0.90625-0.39844 0.60547-0.59375 1.4648-0.59375 2.5781v5.8906h-3.8438v-11.969h3.8438v1.75c0.46875-0.66406 1.0039-1.1719 1.6094-1.5156 0.61328-0.34375 1.2891-0.51562 2.0312-0.51562 0.82031 0 1.5508 0.19922 2.1875 0.59375 0.63281 0.39844 1.1133 0.96094 1.4375 1.6875z"/>
  </symbol>
  <symbol id="s" overflow="visible">
   <path d="m13.859-7.2812v7.2812h-3.8438v-5.5469c0-1.0508-0.027344-1.7695-0.078125-2.1562-0.042969-0.39453-0.12109-0.6875-0.23438-0.875-0.14844-0.25-0.35156-0.44141-0.60938-0.57812-0.25-0.14453-0.54297-0.21875-0.875-0.21875-0.79297 0-1.418 0.3125-1.875 0.9375-0.46094 0.61719-0.6875 1.4648-0.6875 2.5469v5.8906h-3.8125v-16.625h3.8125v6.4062c0.58203-0.69531 1.1953-1.207 1.8438-1.5312 0.64453-0.33203 1.3594-0.5 2.1406-0.5 1.3828 0 2.4297 0.42969 3.1406 1.2812 0.71875 0.84375 1.0781 2.0742 1.0781 3.6875z"/>
  </symbol>
  <symbol id="r" overflow="visible">
   <path d="m2.0156-15.953h4.5781l5.8125 10.938v-10.938h3.8906v15.953h-4.5938l-5.7969-10.938v10.938h-3.8906z"/>
  </symbol>
  <symbol id="q" overflow="visible">
   <path d="m1.7031-4.6562v-7.3125h3.8438v1.2031c0 0.64844-0.007813 1.4609-0.015625 2.4375v1.9688c0 0.96094 0.023438 1.6523 0.078125 2.0781 0.050781 0.41797 0.13281 0.72656 0.25 0.92188 0.15625 0.25 0.35938 0.44531 0.60938 0.57812 0.25781 0.13672 0.55078 0.20312 0.875 0.20312 0.80078 0 1.4258-0.30469 1.875-0.92188 0.45703-0.61328 0.6875-1.4688 0.6875-2.5625v-5.9062h3.8281v11.969h-3.8281v-1.7344c-0.57422 0.69922-1.1836 1.2148-1.8281 1.5469-0.64844 0.33203-1.3555 0.5-2.125 0.5-1.3867 0-2.4453-0.42188-3.1719-1.2656-0.71875-0.85156-1.0781-2.0859-1.0781-3.7031z"/>
  </symbol>
  <symbol id="p" overflow="visible">
   <path d="m13.859-7.2812v7.2812h-3.8438v-5.5781c0-1.0312-0.027344-1.7383-0.078125-2.125-0.042969-0.39453-0.12109-0.6875-0.23438-0.875-0.14844-0.25-0.35156-0.44141-0.60938-0.57812-0.25-0.14453-0.54297-0.21875-0.875-0.21875-0.79297 0-1.418 0.3125-1.875 0.9375-0.46094 0.61719-0.6875 1.4648-0.6875 2.5469v5.8906h-3.8125v-11.969h3.8125v1.75c0.58203-0.69531 1.1953-1.207 1.8438-1.5312 0.64453-0.33203 1.3594-0.5 2.1406-0.5 1.3828 0 2.4297 0.42969 3.1406 1.2812 0.71875 0.84375 1.0781 2.0742 1.0781 3.6875z"/>
  </symbol>
  <symbol id="o" overflow="visible">
   <path d="m1.8438-11.969h3.8125v11.75c0 1.6016-0.38672 2.8281-1.1562 3.6719-0.76172 0.84375-1.8711 1.2656-3.3281 1.2656h-1.8906v-2.5h0.65625c0.72656 0 1.2266-0.16797 1.5-0.5 0.26953-0.32422 0.40625-0.96875 0.40625-1.9375zm0-4.6562h3.8125v3.125h-3.8125z"/>
  </symbol>
  <symbol id="n" overflow="visible">
   <path d="m11.5-11.594v3.125c-0.52344-0.35156-1.043-0.61328-1.5625-0.78125-0.52344-0.17578-1.0625-0.26562-1.625-0.26562-1.0742 0-1.9062 0.3125-2.5 0.9375s-0.89062 1.4961-0.89062 2.6094c0 1.1172 0.29688 1.9844 0.89062 2.6094s1.4258 0.9375 2.5 0.9375c0.59375 0 1.1562-0.085937 1.6875-0.26562 0.53906-0.17578 1.0391-0.44141 1.5-0.79688v3.125c-0.59375 0.23047-1.1992 0.39453-1.8125 0.5-0.61719 0.11328-1.2344 0.17188-1.8594 0.17188-2.1562 0-3.8438-0.55078-5.0625-1.6562-1.2188-1.1133-1.8281-2.6562-1.8281-4.625s0.60938-3.5039 1.8281-4.6094c1.2188-1.1133 2.9062-1.6719 5.0625-1.6719 0.625 0 1.2383 0.058594 1.8438 0.17188 0.61328 0.10547 1.2227 0.26562 1.8281 0.48438z"/>
  </symbol>
 </defs>
 <g>
  <path d="m549.22 281.3c-7.2461 4.7812-12.445 11.68-15.516 20.574h-21.832c-4.8281 0-8.75 3.9219-8.75 8.75s3.9219 8.75 8.75 8.75h28.52c4.1602 0 7.75-2.9297 8.5742-7.0117 4.8633-23.988 26.812-20.922 31.129-20.098 2.5742 0.53516 5.2539-0.11719 7.3008-1.7773 2.043-1.6641 3.2227-4.1562 3.2227-6.7891l0.003906-86.152c0-2.6328-1.1875-5.1289-3.2227-6.7891-2.0469-1.6562-4.7305-2.3125-7.3008-1.7773-0.125 0.015625-12.207 2.3086-21.234-3.6445-5.0938-3.3555-8.3242-8.7383-9.8906-16.453-0.83203-4.0781-4.4219-7.0078-8.582-7.0078h-28.52c-4.8281 0-8.75 3.9219-8.75 8.75s3.9219 8.75 8.75 8.75h21.836c3.0664 8.8945 8.2695 15.793 15.516 20.574 8.0938 5.3359 17.113 6.7812 23.902 6.9414v67.461c-6.7891 0.16797-15.812 1.6094-23.906 6.9492z"/>
  <path d="m380.12 268.47c3.9023 5.8125 8.3477 9.2734 15.816 10.398v8.7578c0 3.0312 3.6602 5.5 6.5625 5.5 2.8945 0 6.5664-2.4688 6.5664-5.5v-8.6758c4.3008-0.61719 7.1602-2.0742 10.844-4.5273 4.4766-2.9844 7.9922-7.8281 8.6484-13.348 1.2734-10.684-4.6758-19.723-14.535-22.727-2.082-0.62891-2.8516-1.2812-4.957-1.8984v-20.52c1.8633 0.57031 2.3047 1.3789 3.7695 2.4648 2.5234 1.8594 4.1992 4.7617 5.3281 7.6953 0.84375 2.2305 2.4453 4.668 4.8594 5.2578 2.4648 0.62109 5.2227-0.98047 5.6172-3.7148 0.48438-3.4883-0.74219-7.4062-3.7852-11.949-1.8867-2.8125-4.1641-5.0742-6.793-6.7148-3.1445-1.9688-5.3672-3.1641-9.0039-3.7656l0.007812-11.566c0-3.0469-3.6719-5.5117-6.5664-5.5117-2.9023 0-6.5625 2.4648-6.5625 5.5117v11.379c-0.92188 0.14062-0.51953 0.32812-1.3984 0.58594-7.4336 2.1367-14.395 7.0117-16.113 15.211-1.1953 5.7266-0.58594 12.316 3.3867 16.781 4.0156 4.5117 8.5312 6.2578 14.125 7.7656v22.852c-3.2891-1.0664-4.8711-2.8711-6.5938-5.2891-1.7891-2.4922-2.4648-5.6445-4.3672-8.0664-2.082-2.6523-6.4883-3.1016-8.1016 0.20703-1.2188 2.5117-0.46484 6.1523 0.60547 8.6094 0.72266 1.6406 1.6367 3.3008 2.6406 4.7969zm28.945-20.539c1.0078 0.29687 0.69531 0.61719 1.6758 0.99219 6.3906 2.4688 9.3086 9.9805 4.8203 15.738-1.832 2.3633-3.3516 3.7578-6.4922 4.3438v-21.074zm-19.582-19.406c-3.0898-5.3711 1.7109-10.922 6.4531-12.621v17.875c-3.168-0.91406-4.7383-2.2891-6.4531-5.2539z"/>
  <path d="m224.41 0c-12.504 0-23.797 8.0781-26.773 20.094l-5.1328 20.68c5.9766-3.25 12.801-5.207 19.988-5.5781l2.7773-11.188c1-4.0352 4.7656-6.8594 9.1406-6.8594 0.76172 0 1.5312 0.09375 2.2852 0.26562l377.71 86.086c3.2695 0.73828 5.7578 2.9648 6.8672 5.7305l9.5547 1.8164c3.1797 0.59766 6.2305 1.5234 9.1406 2.7031 0.64844-12.402-8.1016-23.914-21.328-26.918l-377.7-86.094c-2.1875-0.49609-4.375-0.73828-6.5273-0.73828z"/>
  <path d="m202.94 110.14 6.1484-30.965c0.99219-4.957 5.3867-8.5586 10.461-8.5586 0.73047 0 1.4688 0.078125 2.2031 0.22656l194.35 39.297h91.395l-282.16-57.051c-1.9531-0.39453-3.8867-0.58594-5.793-0.58594-13.484 0-25.496 9.4492-28.223 23.137l-7.5781 38.113c5.3008-2.3086 11.148-3.6133 17.289-3.6133z"/>
  <path d="m402.5 319.38c43.488 0 78.75-35.262 78.75-78.758 0-43.48-35.262-78.742-78.75-78.742s-78.75 35.262-78.75 78.742c0 43.496 35.262 78.758 78.75 78.758zm0-140.92c34.281 0 62.172 27.891 62.172 62.164 0 34.285-27.891 62.184-62.172 62.184s-62.172-27.895-62.172-62.184c0-34.273 27.891-62.164 62.172-62.164z"/>
  <path d="m233.65 292.27c0.12109-0.023437 12.207-2.3125 21.234 3.6445 5.0938 3.3555 8.3242 8.7383 9.8906 16.453 0.82812 4.082 4.418 7.0117 8.5781 7.0117h28.52c4.8281 0 8.75-3.9219 8.75-8.75s-3.9219-8.75-8.75-8.75h-21.836c-3.0664-8.8945-8.2695-15.793-15.516-20.574-8.0938-5.3359-17.113-6.7812-23.902-6.9414l0.003906-67.465c6.7852-0.16016 15.809-1.6055 23.902-6.9414 7.2461-4.7812 12.445-11.68 15.516-20.574l21.832-0.003906c4.8281 0 8.75-3.9219 8.75-8.75s-3.9219-8.75-8.75-8.75h-28.52c-4.1602 0-7.75 2.9297-8.5742 7.0078-4.8594 23.988-26.809 20.934-31.129 20.098-2.5742-0.53906-5.2539 0.11719-7.3008 1.7773-2.0391 1.6641-3.2266 4.1602-3.2266 6.7891v86.148c0 2.6328 1.1875 5.1289 3.2227 6.7891 2.0508 1.6602 4.7305 2.3164 7.3047 1.7812z"/>
  <path d="m628.84 447.36c-4.2539-15.129-20.656-19.781-34.102-17.707-0.9375 0.14844-94.266 17.68-149.81 28.113-4.75 0.89062-7.8789 5.4648-6.9883 10.219 0.89062 4.7461 5.4453 7.8789 10.215 6.9883 50.719-9.5312 147.22-27.656 149.27-28.023 5.0352-0.77734 13.102-0.058594 14.559 5.1445 4.3281 15.414-28.285 28.555-43.961 34.883-2.375 0.95703-90.516 35.949-118.08 44.723-40.504 12.883-72.812 14.312-101.65 4.4727-17.793-6.0742-94.789-47.238-118.23-53.438-14.066-3.7266-27.125-3.0664-37.766 1.8867-0.20312 0.09375-17.32 9.6992-17.32 9.6992l0.007812-89.402 53.152-15.859c0.44531-0.14453 44.219-13.625 85.777 9.3906 0 0 50.059 27.992 52.273 29.16 10.309 5.457 34.461 18.238 37.422 30.137 0.42188 1.6875 0.61719 4.0508-1.5742 7.2891-3.5664 3.4375-19.891 3.3203-77.531-16.727-7.9609-2.7695-13.711-4.7734-17.277-5.6602-4.6992-1.168-9.4375 1.6914-10.605 6.3867-1.1641 4.6914 1.6914 9.4375 6.3828 10.605 2.7969 0.69141 8.8008 2.7812 15.754 5.1992 46.277 16.094 85.566 27.973 97.699 10.102 4.5273-6.6719 5.957-14.086 4.1328-21.422-4.8477-19.48-31.766-33.727-46.227-41.379-2-1.0547-51.98-28.996-51.98-28.996-48.082-26.621-97.457-11.418-99.395-10.812l-48.012 14.324v-2.0078c0-19.133-15.668-34.641-34.996-34.641l-69.984-0.003906v205.27h69.992c19.328 0 34.996-15.508 34.996-34.641v-6.2383l24.98-14.027c8.6406-3.8984 18.691-2.543 25.629-0.70312 21.461 5.6758 97.914 46.547 117.05 53.078 14.195 4.8398 29.305 7.2656 45.516 7.2656 20.484 0 42.727-3.8711 67.09-11.625 27.988-8.9062 117.06-44.262 119.32-45.168 21.961-8.8594 62.832-25.344 54.262-55.852zm-471.34 73.668c0 9.4492-7.8516 17.137-17.5 17.137h-52.5v-170.66h52.5c9.6484 0 17.5 7.6875 17.5 17.137z"/>
  <path d="m183.75 325.94c0 15.703 12.484 28.438 27.891 28.438h390.47c15.406 0 27.891-12.734 27.891-28.438v-170.62c0-15.707-12.484-28.438-27.891-28.438h-390.47c-15.406 0-27.891 12.73-27.891 28.438zm17.5-170.62c0-6.0312 4.6602-10.938 10.391-10.938h390.47c5.7305 0 10.391 4.9062 10.391 10.938v170.62c0 6.0312-4.6602 10.938-10.391 10.938h-390.47c-5.7305 0-10.391-4.9062-10.391-10.938z"/>
  <use x="70" y="625.625" xlink:href="#h"/>
  <use x="86.054688" y="625.625" xlink:href="#c"/>
  <use x="96.839844" y="625.625" xlink:href="#a"/>
  <use x="111.679687" y="625.625" xlink:href="#m"/>
  <use x="126.4375" y="625.625" xlink:href="#b"/>
  <use x="136.894531" y="625.625" xlink:href="#a"/>
  <use x="151.730469" y="625.625" xlink:href="#l"/>
  <use x="175.007812" y="625.625" xlink:href="#k"/>
  <use x="190.664062" y="625.625" xlink:href="#j"/>
  <use x="212.539062" y="625.625" xlink:href="#i"/>
  <use x="236.667969" y="625.625" xlink:href="#g"/>
  <use x="251.613281" y="625.625" xlink:href="#z"/>
  <use x="268.285156" y="625.625" xlink:href="#y"/>
  <use x="283.207031" y="625.625" xlink:href="#g"/>
  <use x="298.148438" y="625.625" xlink:href="#h"/>
  <use x="314.203125" y="625.625" xlink:href="#x"/>
  <use x="332.511719" y="625.625" xlink:href="#w"/>
  <use x="351.105469" y="625.625" xlink:href="#e"/>
  <use x="367.140625" y="625.625" xlink:href="#v"/>
  <use x="390.507812" y="625.625" xlink:href="#f"/>
  <use x="404.449219" y="625.625" xlink:href="#f"/>
  <use x="418.386719" y="625.625" xlink:href="#e"/>
  <use x="70" y="647.5" xlink:href="#u"/>
  <use x="79.515625" y="647.5" xlink:href="#c"/>
  <use x="90.304688" y="647.5" xlink:href="#d"/>
  <use x="105.332031" y="647.5" xlink:href="#t"/>
  <use x="135.742188" y="647.5" xlink:href="#b"/>
  <use x="146.199219" y="647.5" xlink:href="#s"/>
  <use x="161.773438" y="647.5" xlink:href="#a"/>
  <use x="184.222656" y="647.5" xlink:href="#r"/>
  <use x="202.53125" y="647.5" xlink:href="#d"/>
  <use x="217.558594" y="647.5" xlink:href="#q"/>
  <use x="233.132812" y="647.5" xlink:href="#p"/>
  <use x="256.320312" y="647.5" xlink:href="#e"/>
  <use x="272.355469" y="647.5" xlink:href="#c"/>
  <use x="283.140625" y="647.5" xlink:href="#d"/>
  <use x="298.171875" y="647.5" xlink:href="#o"/>
  <use x="305.667969" y="647.5" xlink:href="#a"/>
  <use x="320.503906" y="647.5" xlink:href="#n"/>
  <use x="333.472656" y="647.5" xlink:href="#b"/>
 </g>
</svg>
